<?xml version="1.0" encoding="UTF-8"?>
<svg width="16px" height="13px" viewBox="0 0 16 13" version="1.1" xmlns="http://www.w3.org/2000/svg" xmlns:xlink="http://www.w3.org/1999/xlink">
    <!-- Generator: Sketch 53 (72520) - https://sketchapp.com -->
    <title>tw</title>
    <desc>Created with Sketch.</desc>
    <g id="Design" stroke="none" stroke-width="1" fill="none" fill-rule="evenodd">
        <g id="Index-moonly" transform="translate(-1555.000000, -361.000000)" fill="#230753">
            <g id="Group" transform="translate(1552.000000, 256.000000)">
                <path d="M19,106.538105 C18.4111101,106.799114 17.7792398,106.976128 17.1153433,107.055156 C17.7932268,106.649114 18.3121296,106.005075 18.5580646,105.240011 C17.9221943,105.616032 17.2203108,105.889071 16.4724403,106.037084 C15.8735635,105.39804 15.021719,105 14.0768808,105 C12.2642243,105 10.7944964,106.470113 10.7944964,108.28225 C10.7944964,108.539259 10.8234899,108.79028 10.87949,109.030317 C8.15200842,108.893287 5.73346852,107.586198 4.11477306,105.600027 C3.83181835,106.084076 3.67085077,106.648094 3.67085077,107.250161 C3.67085077,108.389259 4.25074714,109.394334 5.13059172,109.982358 C4.59268234,109.964367 4.08677302,109.816354 3.64387033,109.570328 L3.64387033,109.611332 C3.64387033,111.201451 4.77566303,112.528545 6.27637137,112.830586 C6.00141667,112.904592 5.71148155,112.945597 5.41153335,112.945597 C5.19958529,112.945597 4.99461764,112.924598 4.79364999,112.884587 C5.21155917,114.189689 6.423352,115.138776 7.85909291,115.164769 C6.73629369,116.044844 5.32055281,116.567884 3.78285095,116.567884 C3.51790934,116.567884 3.2569416,116.55188 3,116.522879 C4.4527344,117.455961 6.17741696,118 8.03106704,118 C14.0689331,118 17.3693307,112.99761 17.3693307,108.659291 L17.3583241,108.234264 C18.0031879,107.774195 18.5610712,107.19616 19,106.538105" id="tw"></path>
            </g>
        </g>
    </g>
</svg>