<?xml version="1.0" encoding="UTF-8"?>
<svg width="18px" height="10px" viewBox="0 0 18 10" version="1.1" xmlns="http://www.w3.org/2000/svg" xmlns:xlink="http://www.w3.org/1999/xlink">
    <!-- Generator: Sketch 53 (72520) - https://sketchapp.com -->
    <title>vk</title>
    <desc>Created with Sketch.</desc>
    <g id="Design" stroke="none" stroke-width="1" fill="none" fill-rule="evenodd">
        <g id="Index-moonly" transform="translate(-1554.000000, -498.000000)" fill="#230753">
            <g id="Group" transform="translate(1552.000000, 256.000000)">
                <path d="M17.4916489,248.358093 C18.0889081,248.930623 18.7192372,249.469002 19.2543654,250.098785 C19.4908641,250.380027 19.7153374,250.668301 19.8866987,250.992735 C20.12921,251.454776 19.9087452,251.963022 19.4868556,251.990142 L16.8653283,251.989137 C16.1889021,252.044381 15.6487633,251.777201 15.1958082,251.323195 C14.8330434,250.960593 14.4963334,250.573884 14.146596,250.198224 C14.004296,250.04555 13.8539791,249.90091 13.6746009,249.787409 C13.3168466,249.558397 13.0061916,249.628708 12.8017605,249.995328 C12.5933211,250.367974 12.5462218,250.780798 12.5261795,251.195631 C12.4981203,251.802312 12.3107252,251.962018 11.6904174,251.989137 C10.3656241,252.051413 9.10697033,251.853538 7.9385067,251.19764 C6.90833465,250.619084 6.10965068,249.801471 5.41418434,248.877388 C4.06032983,247.075426 3.02314299,245.096683 2.091178,243.062696 C1.88073429,242.603667 2.03505968,242.35758 2.54914359,242.349544 C3.404948,242.332469 4.2607524,242.333473 5.11655681,242.347536 C5.46529209,242.352558 5.69477595,242.548423 5.82905907,242.870848 C6.29203523,243.987783 6.85822901,245.051483 7.56972916,246.035832 C7.75912849,246.298995 7.95153417,246.561154 8.2261131,246.74597 C8.53075542,246.949871 8.7622435,246.882574 8.90554564,246.550105 C8.9957358,246.339173 9.03582031,246.11217 9.05586257,245.886171 C9.12400625,245.108736 9.13302526,244.33331 9.01377383,243.558888 C8.94061959,243.075753 8.66403643,242.763373 8.17300112,242.670965 C7.9224729,242.624761 7.95955107,242.533357 8.08080673,242.392735 C8.29125044,242.150666 8.48966879,242 8.88450127,242 L11.8487512,242 C12.3147337,242.090399 12.4189534,242.296309 12.4820865,242.757346 L12.4850929,245.988624 C12.4800823,246.167414 12.5762851,246.696753 12.9029739,246.814272 C13.1655275,246.898645 13.3368888,246.692735 13.4952227,246.530016 C14.2047186,245.79075 14.7117877,244.916888 15.1637406,244.01189 C15.3641632,243.614132 15.5375287,243.201308 15.7038795,242.788484 C15.8281415,242.48213 16.0225514,242.331465 16.374293,242.337491 L19.2263063,242.340505 C19.3104838,242.340505 19.3966655,242.341509 19.4778366,242.355571 C19.9588508,242.435926 20.0911297,242.638823 19.9418149,243.09986 C19.7083226,243.822051 19.2533633,244.424714 18.8084252,245.03039 C18.3324216,245.676244 17.8243503,246.3 17.3523552,246.950876 C16.9194424,247.543494 16.9535142,247.842817 17.4916489,248.358093" id="vk"></path>
            </g>
        </g>
    </g>
</svg>