<?xml version="1.0" encoding="UTF-8"?>
<svg width="157px" height="132px" viewBox="0 0 157 132" version="1.1" xmlns="http://www.w3.org/2000/svg" xmlns:xlink="http://www.w3.org/1999/xlink">
    <!-- Generator: Sketch 53 (72520) - https://sketchapp.com -->
    <title>astronaut</title>
    <desc>Created with Sketch.</desc>
    <defs>
        <polygon id="path-1" points="0 0.4368 63.5056 0.4368 63.5056 53.2627397 0 53.2627397"></polygon>
    </defs>
    <g id="Design" stroke="none" stroke-width="1" fill="none" fill-rule="evenodd">
        <g id="Index-moonly" transform="translate(-812.000000, -572.000000)">
            <g id="astronaut" transform="translate(812.000000, 572.000000)">
                <path d="M25.6839,76.3241 C25.6839,76.3241 14.8799,75.1681 15.9659,62.8681 L11.5079,58.8101 C11.5079,58.8101 6.8319,68.1201 13.9499,76.4281 C21.0729,84.7391 28.6899,81.5941 28.6899,81.5941 L25.6839,76.3241 Z" id="Fill-76" fill="#00B8E2"></path>
                <path d="M11.5081,58.8104 L12.2921,59.5224 C11.3561,62.7574 10.5021,69.1214 15.5281,74.9894 C20.3481,80.6144 25.3891,80.9864 28.1471,80.6414 L28.6901,81.5934 C28.6901,81.5934 21.0731,84.7394 13.9491,76.4284 C6.8321,68.1204 11.5081,58.8104 11.5081,58.8104" id="Fill-78" fill="#230753" opacity="0.100000001"></path>
                <path d="M52.074,113.0633 C56.866,118.7683 65.375,119.5133 71.082,114.7203 L83.144,104.5963 C88.853,99.8053 89.595,91.2953 84.804,85.5883 L59.837,55.8563 C55.055,50.1453 46.543,49.4043 40.838,54.1943 L28.771,64.3233 C23.067,69.1133 22.32,77.6213 27.113,83.3293 L52.074,113.0633 Z" id="Fill-80" fill="#DDDDDD"></path>
                <path d="M25.2405,68.9325 C24.5685,72.7295 25.5135,76.7835 28.1885,79.9695 L53.1485,109.7035 C57.9405,115.4095 66.4495,116.1525 72.1565,111.3615 L84.2185,101.2375 C85.7725,99.9325 86.9435,98.3475 87.7505,96.6245 C87.2165,99.6325 85.6675,102.4785 83.1435,104.5965 L71.0815,114.7205 C65.3755,119.5135 56.8665,118.7685 52.0735,113.0635 L27.1135,83.3285 C23.6245,79.1725 23.0845,73.5415 25.2405,68.9325" id="Fill-82" fill="#230753" opacity="0.100000001"></path>
                <path d="M0.6111,29.0135 C-0.8309,46.4845 13.6291,61.9405 32.9001,63.5325 C52.1641,65.1225 68.9661,52.2425 70.4041,34.7715 C71.8501,17.2955 57.3911,1.8395 38.1201,0.2495 C18.8471,-1.3405 2.0531,11.5375 0.6111,29.0135" id="Fill-84" fill="#DDDDDD"></path>
                <path d="M6.8763,33.663 C5.5283,49.992 18.1273,64.364 35.0163,65.754 C51.8983,67.149 66.6883,55.038 68.0343,38.71 C69.3803,22.381 56.7813,8.009 39.8933,6.618 C23.0073,5.223 8.2223,17.333 6.8763,33.663" id="Fill-86" fill="#040028"></path>
                <g id="Group-90" transform="translate(0.000000, 15.364000)">
                    <mask id="mask-2" fill="white">
                        <use xlink:href="#path-1"></use>
                    </mask>
                    <g id="Clip-89"></g>
                    <path d="M63.5056,36.6388 C57.4316,48.0628 44.5526,56.3778 25.4596,52.1388 C7.2986,48.1038 -1.3714,34.6088 0.1756,15.8468 C0.6486,10.1768 2.4196,4.9408 5.1656,0.4368 C5.1656,0.4368 -1.4774,36.9508 27.2846,43.6728 C53.4756,49.7988 63.5056,36.6388 63.5056,36.6388" id="Fill-88" fill="#FFFFFF" mask="url(#mask-2)"></path>
                </g>
                <path d="M13.1433,62.2919 L15.1083,59.6509 C16.2683,58.0419 14.7713,54.9779 11.7653,52.8059 C8.7603,50.6329 5.3803,50.1799 4.2183,51.7889 L2.3953,54.2609 L13.1433,62.2919 Z" id="Fill-91" fill="#DDDDDD"></path>
                <path d="M2.3953,54.2606 C1.2343,55.8696 2.7293,58.9366 5.7363,61.1076 C8.7473,63.2786 12.1253,63.7356 13.2873,62.1226 C14.4463,60.5146 12.9543,57.4476 9.9423,55.2786 C6.9363,53.1036 3.5583,52.6506 2.3953,54.2606" id="Fill-93" fill="#FFFFFF"></path>
                <path d="M54.2522,16.536 C54.2522,16.536 50.6922,12.113 42.5592,10.595 C42.5592,10.595 36.1762,9.271 35.9732,11.519 C35.9732,11.519 35.3762,14.061 40.6072,13.681 C40.6072,13.681 48.7262,12.967 54.2522,16.536" id="Fill-95" fill="#FFFFFF"></path>
                <path d="M106.5359,33.0946 C102.8349,35.0456 101.4449,39.6686 103.4259,43.4286 L105.2409,46.8626 C107.2199,50.6206 111.8249,52.0786 115.5249,50.1286 C119.2239,48.1826 120.6119,43.5506 118.6309,39.7926 L116.8179,36.3606 C114.8379,32.6046 110.2309,31.1416 106.5359,33.0946" id="Fill-97" fill="#FFFFFF"></path>
                <path d="M116.2615,38.8436 C114.9725,39.3596 114.3505,40.8276 114.8725,42.1176 C115.3925,43.4056 116.8595,44.0276 118.1445,43.5046 L125.1415,40.6746 C126.4365,40.1556 127.0555,38.6886 126.5335,37.4006 C126.0125,36.1096 124.5505,35.4906 123.2595,36.0106 L116.2615,38.8436 Z" id="Fill-99" fill="#FFFFFF"></path>
                <path d="M114.7698,34.1864 C113.4888,35.0184 113.0688,36.6394 113.8268,37.8074 C114.5868,38.9674 116.2338,39.2314 117.5138,38.4044 L124.4658,33.8794 C125.7478,33.0494 126.1668,31.4294 125.4108,30.2614 C124.6488,29.0964 122.9988,28.8284 121.7218,29.6654 L114.7698,34.1864 Z" id="Fill-101" fill="#FFFFFF"></path>
                <path d="M109.8577,32.5409 C108.9427,33.7619 109.0987,35.4289 110.2117,36.2619 C111.3207,37.0949 112.9637,36.7869 113.8787,35.5669 L118.8667,28.9419 C119.7917,27.7209 119.6307,26.0569 118.5237,25.2189 C117.4077,24.3839 115.7677,24.6929 114.8467,25.9159 L109.8577,32.5409 Z" id="Fill-103" fill="#FFFFFF"></path>
                <path d="M104.7503,36.5516 C104.5913,37.8696 105.5823,39.0746 106.9643,39.2406 C108.3403,39.4056 109.5893,38.4766 109.7493,37.1556 L110.6133,29.9866 C110.7803,28.6666 109.7833,27.4616 108.4053,27.2926 C107.0223,27.1246 105.7783,28.0636 105.6173,29.3796 L104.7503,36.5516 Z" id="Fill-105" fill="#FFFFFF"></path>
                <path d="M114.9754,42.6503 C113.6484,42.5943 112.5234,43.6753 112.4624,45.0653 C112.4004,46.4503 113.4284,47.6193 114.7544,47.6813 L121.9654,47.9963 C123.2984,48.0603 124.4214,46.9763 124.4814,45.5933 C124.5404,44.2013 123.5154,43.0293 122.1934,42.9733 L114.9754,42.6503 Z" id="Fill-107" fill="#FFFFFF"></path>
                <g id="Group-119" transform="translate(105.000000, 24.364000)" fill="#230753" opacity="0.100000001">
                    <path d="M10.0623,9.63 L13.2193,3.734 C13.7463,2.615 13.9763,1.774 13.5843,0.914 C14.6323,1.768 14.7723,3.382 13.8673,4.578 L10.0623,9.63 Z" id="Fill-109"></path>
                    <path d="M5.3889,7.4718 L4.9669,4.7778 C4.9179,4.2048 4.7539,3.2928 4.0979,3.1108 C6.4259,4.0338 5.4349,6.7058 5.3889,7.4718" id="Fill-111"></path>
                    <path d="M9.8782,24.921 C10.9562,24.353 11.8312,23.554 12.4902,22.618 L16.3212,22.786 C17.6532,22.853 18.7742,21.767 18.8372,20.385 C18.8572,19.942 18.7542,19.526 18.5782,19.157 C19.1562,19.638 19.5202,20.392 19.4822,21.23 C19.4212,22.612 18.2982,23.696 16.9652,23.632 L13.1362,23.463 C12.4762,24.4 11.6032,25.197 10.5252,25.765 C7.0442,27.601 2.7622,26.417 0.6202,23.138 C2.9002,25.758 6.7162,26.587 9.8782,24.921" id="Fill-113"></path>
                    <path d="M12.7996,13.8546 L12.7996,13.8546 L18.8176,8.6696 C19.9446,7.5246 20.4286,6.5086 19.9276,5.3806 C20.1066,5.5276 20.2746,5.6946 20.4106,5.8976 C21.1666,7.0656 20.7476,8.6856 19.4666,9.5156 L12.7996,13.8546 Z" id="Fill-115"></path>
                    <path d="M16.5511,17.7667 C16.5501,17.7657 14.7431,18.4997 14.7391,18.4997 L19.4971,15.4667 C20.7251,14.6457 21.4091,13.4797 20.8891,12.1907 C20.8691,12.1497 20.8431,12.1117 20.8241,12.0707 C21.1251,12.3237 21.3771,12.6447 21.5341,13.0367 C22.0561,14.3247 21.4371,15.7917 20.1411,16.3107 L16.5511,17.7667 Z" id="Fill-117"></path>
                </g>
                <path d="M105.5252,52.7635 C105.5252,52.7635 85.3562,67.0995 78.2102,61.0215 L79.0392,43.6635 C79.0392,43.6635 87.7842,45.6025 98.7362,39.6095 C98.7362,39.6095 98.1082,40.5495 102.4422,47.9865 L105.5252,52.7635 Z" id="Fill-120" fill="#FFFFFF"></path>
                <path d="M103.8509,50.1659 L105.5249,52.7639 C105.5249,52.7639 85.3559,67.0999 78.2099,61.0209 L78.3219,58.7309 C85.3899,62.2409 100.6009,52.3709 103.8509,50.1659" id="Fill-122" fill="#230753" opacity="0.100000001"></path>
                <path d="M98.597,39.6796 C98.647,39.6536 98.69,39.6366 98.737,39.6096 C98.737,39.6096 98.693,39.6786 98.711,39.9276 C98.674,39.8436 98.634,39.7566 98.597,39.6796" id="Fill-124" fill="#FFFFFF"></path>
                <path d="M99.927,37.9637 C98.635,38.6847 98.263,40.4747 99.097,41.9717 L104.448,51.5927 C105.281,53.0857 107,53.7107 108.291,52.9977 C109.586,52.2787 109.956,50.4847 109.126,48.9887 L103.769,39.3637 C102.939,37.8747 101.222,37.2507 99.927,37.9637" id="Fill-126" fill="#00B8E2"></path>
                <path d="M106.7395,53.0838 C108.0325,52.3648 108.4025,50.5688 107.5725,49.0748 L102.2185,39.4518 C101.7475,38.6108 100.9945,38.0598 100.1955,37.8538 C101.4515,37.3548 102.9945,37.9758 103.7695,39.3638 L109.1265,48.9888 C109.9565,50.4838 109.5855,52.2788 108.2915,52.9978 C107.7295,53.3078 107.0875,53.3508 106.4715,53.1938 C106.5605,53.1568 106.6515,53.1308 106.7395,53.0838" id="Fill-128" fill="#230753" opacity="0.100000001"></path>
                <path d="M69.9373,40.4696 C69.9373,40.4696 67.5063,39.2076 63.5223,40.6506 C59.5483,42.0976 44.9243,47.4596 44.9243,47.4596 C44.9243,47.4596 40.3733,48.9276 37.6923,54.0936 C35.0193,59.2576 29.6443,68.2486 29.6443,68.2486 C29.6443,68.2486 28.0813,70.8506 30.2893,73.6066 C32.4963,76.3576 51.9143,97.9816 51.9143,97.9816 C51.9143,97.9816 55.4223,100.9126 55.0913,104.0826 C54.7643,107.2546 57.6983,107.0796 57.6983,107.0796 C57.6983,107.0796 59.8883,106.6346 60.0743,109.4316 C60.2623,112.2256 70.4623,125.9106 77.3573,118.1826 C84.2513,110.4536 105.2143,88.9296 105.2143,88.9296 C105.2143,88.9296 109.1893,84.9816 104.5533,80.5326 C99.9143,76.0826 98.9853,79.3396 98.5923,73.9916 C98.5923,73.9916 98.5183,71.1026 96.4253,70.7236 C94.3403,70.3426 95.2203,68.9526 95.2203,68.9526 C95.2203,68.9526 96.5323,67.3236 95.2293,65.8606 C93.9253,64.3996 96.4953,61.4796 91.2153,61.0486 L69.9373,40.4696 Z" id="Fill-130" fill="#FFFFFF"></path>
                <g id="Group-136" transform="translate(29.000000, 39.364000)" fill="#230753" opacity="0.100000001">
                    <path d="M66.2205,29.589 C66.2205,29.589 66.1725,29.666 66.1245,29.789 C65.6505,28.243 67.0775,25.939 62.4325,25.562 L41.1555,4.981 C41.1555,4.981 38.7225,3.72 34.7405,5.163 C30.7635,6.607 16.1415,11.971 16.1415,11.971 C16.1415,11.971 11.5905,13.439 8.9115,18.604 C6.2365,23.77 0.8615,32.761 0.8615,32.761 C0.8615,32.761 0.7555,32.938 0.6395,33.242 C-0.5595,30.89 0.6435,28.885 0.6435,28.885 C0.6435,28.885 6.0195,19.894 8.6925,14.73 C11.3735,9.564 15.9245,8.096 15.9245,8.096 C15.9245,8.096 30.5485,2.734 34.5225,1.286 C38.5065,-0.156 40.9375,1.106 40.9375,1.106 L62.2155,21.685 C67.4945,22.115 64.9255,25.035 66.2285,26.496 C67.5325,27.959 66.2205,29.589 66.2205,29.589" id="Fill-132"></path>
                    <path d="M75.7708,45.046 C71.1308,40.596 70.2048,43.853 69.8098,38.504 C69.8098,38.504 69.7358,35.614 67.6438,35.235 C65.5558,34.854 66.4378,33.465 66.4378,33.465 C66.4378,33.465 67.2708,32.4 66.9168,31.223 C67.0628,31.275 67.2278,31.322 67.4248,31.359 C69.5178,31.738 69.5918,34.628 69.5918,34.628 C69.9858,39.976 70.9138,36.719 75.5538,41.169 C78.0588,43.569 78.0468,45.82 77.5088,47.388 C77.1588,46.636 76.6098,45.85 75.7708,45.046" id="Fill-134"></path>
                </g>
                <path d="M58.1805,50.0262 L56.8205,57.1642 C56.6795,58.0732 56.9075,59.0682 57.5225,59.8992 L70.3975,78.5222 C71.5605,80.0862 73.2655,80.0532 75.0985,79.4202 L92.3295,72.1732 C93.1835,71.5402 93.6055,70.5302 93.5635,69.4822 L94.1835,64.6392" id="Fill-137" fill="#CFCFCF"></path>
                <path d="M59.5681,76.3846 C58.5091,77.4296 58.8361,79.4736 60.2931,80.9516 C61.7481,82.4296 63.7921,82.7786 64.8541,81.7326 C65.9071,80.6896 65.5811,78.6436 64.1261,77.1686 C62.6671,75.6936 60.6261,75.3416 59.5681,76.3846" id="Fill-139" fill="#CFCFCF"></path>
                <path d="M52.1126,63.8739 C51.2276,64.7439 51.5066,66.4529 52.7156,67.6819 C53.9336,68.9159 55.6366,69.2069 56.5166,68.3359 C57.4006,67.4669 57.1266,65.7599 55.9106,64.5309 C54.6946,63.2999 52.9976,63.0069 52.1126,63.8739" id="Fill-141" fill="#CFCFCF"></path>
                <path d="M63.8636,77.9803 C62.4046,76.5043 60.3636,76.1533 59.3036,77.1963 C59.1786,77.3183 59.0776,77.4603 58.9886,77.6093 C59.0566,77.1373 59.2376,76.7093 59.5686,76.3843 C60.6266,75.3413 62.6666,75.6933 64.1266,77.1683 C65.4106,78.4683 65.8126,80.2113 65.1656,81.3233 C65.3186,80.2783 64.8656,78.9963 63.8636,77.9803" id="Fill-143" fill="#230753" opacity="0.100000001"></path>
                <path d="M55.6482,65.3426 C54.4312,64.1126 52.7342,63.8186 51.8512,64.6866 C51.7562,64.7796 51.6842,64.8846 51.6172,64.9906 C51.6592,64.5596 51.8152,64.1666 52.1122,63.8736 C52.9972,63.0066 54.6942,63.2996 55.9112,64.5306 C56.9982,65.6306 57.3262,67.1086 56.7502,68.0286 C56.8352,67.1786 56.4542,66.1576 55.6482,65.3426" id="Fill-145" fill="#230753" opacity="0.100000001"></path>
                <path d="M72.8079,71.9647 C73.8539,73.3667 75.4029,73.3837 76.9019,72.8707 L93.1229,66.4507 C94.3349,65.5457 94.4719,63.6787 93.4239,62.2747 L79.2979,43.2847 C78.2539,41.8817 76.8049,41.6187 75.2119,42.3777 L58.9889,48.7997 C57.7689,49.7027 57.6349,51.5727 58.6769,52.9767 L72.8079,71.9647 Z" id="Fill-147" fill="#DDDDDD"></path>
                <path d="M61.7156,77.2489 C61.0496,77.9439 61.1066,79.0699 61.8356,79.7639 C62.5616,80.4579 63.6806,80.4589 64.3416,79.7669 L69.6466,74.2279 C70.3056,73.5359 70.2596,72.4089 69.5286,71.7139 C68.8026,71.0199 67.6756,71.0169 67.0136,71.7129 L61.7156,77.2489 Z" id="Fill-149" fill="#DDDDDD"></path>
                <path d="M61.7156,77.2489 L67.0136,71.7129 C67.6756,71.0169 68.8026,71.0199 69.5286,71.7139 C69.7116,71.8899 69.8526,72.0919 69.9476,72.3079 C69.2286,71.7709 68.2296,71.8129 67.6186,72.4519 L62.3216,77.9919 C61.8266,78.5079 61.7306,79.2689 62.0196,79.9069 C61.9576,79.8609 61.8936,79.8189 61.8356,79.7639 C61.1066,79.0699 61.0496,77.9439 61.7156,77.2489" id="Fill-151" fill="#230753" opacity="0.100000001"></path>
                <path d="M68.0135,57.8553 C68.5695,58.6193 69.7275,58.7283 70.5965,58.0893 L80.5205,54.0163 C81.3925,53.3833 81.6425,52.2503 81.0835,51.4813 L77.2415,46.2153 C76.6825,45.4503 75.9105,45.4123 74.6545,45.9793 L64.7335,50.0523 C63.8635,50.6883 63.6125,51.8203 64.1715,52.5873 L68.0135,57.8553 Z" id="Fill-153" fill="#040028"></path>
                <path d="M91.9007,107.8944 C91.9007,107.8944 93.0907,106.1104 89.1257,101.9574 C85.1597,97.8054 75.3167,82.2574 56.8567,101.2414 L82.2897,122.4574 C82.2897,122.4574 85.1647,123.7994 86.7967,121.7144 C88.4307,119.6244 91.9007,107.8944 91.9007,107.8944" id="Fill-155" fill="#FFFFFF"></path>
                <path d="M82.0335,103.7421 L75.9475,99.2971 C74.1565,97.9901 73.8645,95.3411 75.2955,93.3801 C75.6125,92.9491 75.9895,92.6031 76.3925,92.3161 C82.2705,93.5831 86.1825,98.6451 88.5135,101.2851 C88.3615,101.7221 88.1605,102.1541 87.8695,102.5571 C86.4365,104.5171 83.8245,105.0491 82.0335,103.7421" id="Fill-157" fill="#00B8E2"></path>
                <path d="M90.4734,111.0809 C90.4734,111.0809 91.6624,109.2959 87.7004,105.1439 C83.9114,101.1819 73.7474,86.0019 56.8564,101.2409 C75.3164,82.2579 85.1594,97.8059 89.1254,101.9569 C93.0904,106.1099 91.9004,107.8939 91.9004,107.8939 C91.9004,107.8939 92.1914,108.1639 90.4734,111.0809 C89.8944,111.7149 90.4734,111.0809 90.4734,111.0809" id="Fill-159" fill="#230753" opacity="0.100000001"></path>
                <path d="M112.1375,130.7713 C112.1375,130.7713 108.2945,133.5423 99.4565,126.9183 C99.4565,126.9183 92.9535,122.0503 87.0395,122.6373 C87.0395,122.6373 84.4305,123.4513 84.4715,120.4283 C84.5095,117.4113 91.0555,107.0003 91.0555,107.0003 C91.0555,107.0003 91.5005,105.7863 94.0905,106.8693 C96.6795,107.9483 100.7915,109.3863 105.1625,114.1293 C105.1625,114.1293 106.1655,112.5653 109.4995,105.6453 C112.8365,98.7203 117.0165,104.2013 117.0165,104.2013 L112.1375,130.7713 Z" id="Fill-161" fill="#00B8E2"></path>
                <path d="M112.1375,130.7713 C112.1375,130.7713 108.2945,133.5423 99.4565,126.9183 C99.4565,126.9183 92.9535,122.0503 87.0395,122.6373 C87.0395,122.6373 84.4305,123.4513 84.4715,120.4283 C84.5095,117.4113 91.0555,107.0003 91.0555,107.0003 C91.0555,107.0003 91.5005,105.7863 94.0905,106.8693 C96.6795,107.9483 100.7915,109.3863 105.1625,114.1293 C105.1625,114.1293 106.1655,112.5653 109.4995,105.6453 C112.8365,98.7203 117.0165,104.2013 117.0165,104.2013 L112.1375,130.7713 Z" id="Fill-163" fill="#00B8E2"></path>
                <g id="Group-169" transform="translate(89.000000, 101.364000)" fill="#230753" opacity="0.100000001">
                    <path d="M26.3601,5.0782 C26.3601,5.0782 23.5541,1.4082 20.7071,3.8792 C24.0061,-2.4118 28.0171,2.8372 28.0171,2.8372 L23.1371,29.4072 C23.1371,29.4072 22.7011,29.7112 21.8041,29.8742 L26.3601,5.0782 Z" id="Fill-165"></path>
                    <path d="M14.5047,15.005 C10.1317,10.266 6.0187,8.825 3.4307,7.744 C2.1707,7.218 1.4217,7.236 0.9847,7.395 C1.6237,6.325 2.0557,5.636 2.0557,5.636 C2.0557,5.636 2.5007,4.422 5.0907,5.505 C7.6217,6.561 11.6177,7.97 15.8857,12.473 C14.8727,14.429 14.5047,15.005 14.5047,15.005" id="Fill-167"></path>
                </g>
                <path d="M109.0237,124.0809 C108.4887,127.4669 109.6157,130.4609 111.5487,130.7699 C113.4757,131.0749 115.4777,128.5809 116.0157,125.1919 L118.3917,110.3119 C118.9247,106.9269 117.7947,103.9339 115.8677,103.6249 C113.9377,103.3169 111.9397,105.8129 111.3987,109.1999 L109.0237,124.0809 Z" id="Fill-170" fill="#DDDDDD"></path>
                <path d="M117.2493,105.6454 C115.3223,105.3344 113.3223,107.8304 112.7823,111.2174 L110.4063,126.0994 C110.1543,127.7054 110.2823,129.2124 110.6863,130.3964 C109.3033,129.4574 108.5773,126.9194 109.0233,124.0814 L111.3993,109.2004 C111.9393,105.8134 113.9373,103.3174 115.8683,103.6244 C116.8823,103.7874 117.6653,104.7044 118.1133,106.0174 C117.8443,105.8364 117.5633,105.6934 117.2493,105.6454" id="Fill-172" fill="#230753" opacity="0.100000001"></path>
                <path d="M45.3836,113.4901 C45.6986,109.2401 42.4476,105.5281 38.1296,105.2131 L34.1776,104.9211 C29.8566,104.6071 26.0996,107.7951 25.7866,112.0501 C25.4746,116.3031 28.7246,120.0111 33.0476,120.3271 L36.9936,120.6141 C41.3166,120.9371 45.0706,117.7441 45.3836,113.4901" id="Fill-174" fill="#FFFFFF"></path>
                <path d="M35.1546,118.7899 C35.3986,117.3939 34.4636,116.0649 33.0676,115.8189 C31.6746,115.5719 30.3446,116.5039 30.0976,117.9009 L28.7636,125.4809 C28.5126,126.8799 29.4476,128.2099 30.8426,128.4559 C32.2406,128.7019 33.5686,127.7699 33.8186,126.3759 L35.1546,118.7899 Z" id="Fill-176" fill="#FFFFFF"></path>
                <path d="M39.9822,120.0165 C39.9592,118.4625 38.7812,117.2225 37.3632,117.2505 C35.9492,117.2765 34.8222,118.5585 34.8522,120.1125 L35.0082,128.5705 C35.0322,130.1295 36.2042,131.3675 37.6222,131.3405 C39.0412,131.3135 40.1602,130.0355 40.1382,128.4785 L39.9822,120.0165 Z" id="Fill-178" fill="#FFFFFF"></path>
                <path d="M44.0613,116.6659 C43.4993,115.2109 41.9743,114.4469 40.6523,114.9569 C39.3273,115.4629 38.7123,117.0529 39.2703,118.5029 L42.3013,126.4019 C42.8593,127.8579 44.3833,128.6179 45.7083,128.1139 C47.0343,127.6039 47.6513,126.0159 47.0903,124.5629 L44.0613,116.6659 Z" id="Fill-180" fill="#FFFFFF"></path>
                <path d="M43.3606,110.0799 C42.3026,109.2279 40.7266,109.4339 39.8346,110.5349 C38.9466,111.6379 39.0826,113.2199 40.1306,114.0739 L45.8616,118.6959 C46.9166,119.5539 48.4906,119.3449 49.3816,118.2439 C50.2736,117.1379 50.1396,115.5579 49.0886,114.7059 L43.3606,110.0799 Z" id="Fill-182" fill="#FFFFFF"></path>
                <path d="M32.5471,115.621 C33.3151,114.506 32.9951,112.948 31.8241,112.144 C30.6621,111.343 29.0931,111.593 28.3201,112.711 L24.1471,118.777 C23.3801,119.893 23.7051,121.446 24.8711,122.253 C26.0411,123.057 27.6021,122.803 28.3751,121.683 L32.5471,115.621 Z" id="Fill-184" fill="#FFFFFF"></path>
                <g id="Group-196" transform="translate(24.000000, 105.364000)" fill="#230753" opacity="0.100000001">
                    <path d="M23.6619,12.3077 C24.5529,11.2007 24.4179,9.6207 23.3689,8.7677 L19.5629,5.6957 C19.1359,3.2027 17.4749,1.0927 15.1949,0.0177 C18.3479,0.6847 20.7529,3.1857 21.2859,6.2677 L25.0889,9.3417 C26.1399,10.1937 26.2729,11.7737 25.3819,12.8797 C24.4909,13.9807 22.9169,14.1897 21.8619,13.3317 L21.7879,13.2727 C22.4849,13.2317 23.1739,12.9077 23.6619,12.3077" id="Fill-186"></path>
                    <path d="M19.9871,22.1749 C21.3121,21.6659 21.6141,20.8539 21.3711,18.6259 L20.3841,12.1389 C20.5731,12.2929 20.1681,12.0529 20.3841,12.1389 L23.0901,19.1989 C23.6521,20.6519 23.0341,22.2399 21.7081,22.7499 C20.8641,23.0709 19.9411,22.8749 19.2361,22.3149 C19.4881,22.3059 19.7421,22.2709 19.9871,22.1749" id="Fill-188"></path>
                    <path d="M8.3416,20.9542 L10.8616,15.2212 L9.7716,21.2192 C9.2316,22.9012 7.7966,23.2612 6.8426,23.0922 C6.3986,23.0152 6.0106,22.8172 5.6836,22.5532 C6.8586,22.4992 7.7146,21.9752 8.3416,20.9542" id="Fill-190"></path>
                    <path d="M3.5515,15.9689 L5.7955,14.2569 L4.2385,16.4999 C3.2075,17.6919 1.6825,17.4479 0.8705,16.8889 C0.8195,16.8539 0.7785,16.8089 0.7305,16.7729 C1.4845,16.7439 2.1505,16.9969 3.5515,15.9689" id="Fill-192"></path>
                    <path d="M14.4168,22.5402 L15.9888,15.0112 L16.1388,23.1142 C16.1608,24.6712 15.0418,25.9492 13.6218,25.9772 C13.0188,25.9872 12.4668,25.7602 12.0228,25.3882 C13.3828,25.2912 13.9328,24.7712 14.4168,22.5402" id="Fill-194"></path>
                </g>
                <path d="M41.2693,102.0702 L28.8913,102.9162 C28.8913,102.9162 25.6333,98.7842 26.3823,82.4042 L27.1963,73.8462 C27.6723,68.7932 32.1653,65.0862 37.2163,65.5652 C42.2713,66.0452 45.9773,70.5312 45.5013,75.5872 C45.5013,75.5872 45.8543,86.6892 41.2693,102.0702" id="Fill-197" fill="#FFFFFF"></path>
                <path d="M41.3919,76.3651 C41.8689,71.3101 38.1609,66.8221 33.1069,66.3421 C32.9429,66.3261 32.7779,66.3271 32.6139,66.3211 C34.0129,65.6961 35.5849,65.4091 37.2159,65.5651 C42.2709,66.0451 45.9769,70.5311 45.5019,75.5871 C45.5019,75.5871 45.8549,86.6891 41.2689,102.0701 L37.3089,102.3431 C41.7349,87.2251 41.3919,76.3651 41.3919,76.3651" id="Fill-199" fill="#230753" opacity="0.100000001"></path>
                <path d="M26.7849,78.1512 C27.5379,77.5972 28.4809,77.2532 29.5249,77.2512 C31.9499,77.2452 33.9229,79.0372 33.9309,81.2552 L33.9459,88.7882 C33.9509,91.0072 31.9879,92.8102 29.5609,92.8112 C28.3209,92.8182 27.2049,92.3482 26.4049,91.5982 C26.2559,89.0712 26.2129,86.0582 26.3829,82.4042 L26.7849,78.1512 Z" id="Fill-201" fill="#00B8E2"></path>
                <path d="M26.2757,105.8006 C26.3997,107.2726 27.8787,108.3516 29.5777,108.2136 L40.5537,107.3076 C42.2557,107.1696 43.5377,105.8606 43.4177,104.3906 C43.2967,102.9146 41.8187,101.8366 40.1147,101.9736 L29.1367,102.8786 C27.4347,103.0176 26.1547,104.3246 26.2757,105.8006" id="Fill-203" fill="#00B8E2"></path>
                <path d="M42.4768,105.5731 C42.3558,104.1001 40.8778,103.0191 39.1758,103.1581 L28.1978,104.0621 C27.5248,104.1191 26.9258,104.3591 26.4438,104.7151 C26.8418,103.7331 27.8708,102.9821 29.1368,102.8791 L40.1148,101.9731 C41.8188,101.8371 43.2968,102.9151 43.4178,104.3901 C43.4908,105.2801 43.0448,106.1041 42.3078,106.6511 C42.4458,106.3161 42.5068,105.9501 42.4768,105.5731" id="Fill-205" fill="#230753" opacity="0.100000001"></path>
                <path d="M128.3279,82.6005 C128.3279,82.6005 112.1719,65.8365 93.8649,76.5565 C87.2649,80.4195 84.7879,82.8725 84.7879,82.8725 L93.1679,98.4005 C93.1679,98.4005 109.6399,94.2655 120.9869,98.2605 C120.9869,98.2605 123.5779,98.9585 124.7499,97.3215 L128.3279,82.6005 Z" id="Fill-207" fill="#FFFFFF"></path>
                <path d="M119.6072,80.8651 L112.5082,78.3441 C110.5292,77.6391 109.5152,75.4041 110.1012,73.2301 C116.0362,74.0731 121.0062,76.8811 124.2522,79.2061 C123.1752,80.7331 121.3122,81.4721 119.6072,80.8651" id="Fill-209" fill="#00B8E2"></path>
                <path d="M94.8421,78.3202 C89.8721,80.6102 86.1311,81.7962 84.7881,82.8732 C84.7881,82.8732 87.2641,80.4202 93.8651,76.5562 C112.1721,65.8372 128.3281,82.6002 128.3281,82.6002 L127.6641,85.3312 C124.7321,82.5882 110.9161,70.9062 94.8421,78.3202" id="Fill-211" fill="#230753" opacity="0.100000001"></path>
                <path d="M149.9866,105.1239 C149.9866,105.1239 146.1426,107.8949 137.3056,101.2739 C137.3056,101.2739 132.0276,98.3749 126.1076,98.9629 C126.1076,98.9629 123.5586,99.0969 123.6036,96.0769 C123.6426,93.0549 127.4046,82.3829 127.4046,82.3829 C127.4046,82.3829 127.8536,81.1689 130.4466,82.2529 C133.0296,83.3359 138.6366,83.7419 143.0076,88.4799 C143.0076,88.4799 144.0146,86.9159 147.3486,79.9969 C150.6866,73.0779 154.8676,78.5559 154.8676,78.5559 L149.9866,105.1239 Z" id="Fill-213" fill="#00B8E2"></path>
                <path d="M154.0515,80.5116 C154.0515,80.5116 149.8685,75.0346 146.5335,81.9546 C143.1975,88.8726 142.9895,89.9036 142.9895,89.9036 C138.6205,85.1616 132.2175,85.2926 129.6295,84.2096 C127.9425,83.5046 127.1735,83.7726 126.8365,84.0426 C127.1785,83.0296 127.4045,82.3826 127.4045,82.3826 C127.4045,82.3826 127.8535,81.1686 130.4465,82.2526 C133.0305,83.3356 138.6365,83.7416 143.0085,88.4806 C143.0085,88.4806 144.0145,86.9156 147.3485,79.9966 C150.6865,73.0776 154.8675,78.5556 154.8675,78.5556 L149.9865,105.1236 C149.9865,105.1236 149.8165,105.2406 149.4855,105.3656 L154.0515,80.5116 Z" id="Fill-215" fill="#230753" opacity="0.100000001"></path>
                <path d="M146.8684,98.4344 C146.3344,101.8214 147.4634,104.8124 149.3864,105.1234 C151.3234,105.4314 153.3264,102.9344 153.8614,99.5434 L156.2324,84.6684 C156.7734,81.2774 155.6424,78.2854 153.7164,77.9804 C151.7844,77.6704 149.7864,80.1664 149.2444,83.5524 L146.8684,98.4344 Z" id="Fill-217" fill="#DDDDDD"></path>
                <path d="M154.9202,80.1708 C152.9892,79.8608 150.9912,82.3578 150.4492,85.7428 L148.0722,100.6228 C147.8482,102.0588 147.9342,103.4068 148.2372,104.5248 C147.0522,103.4448 146.4542,101.0678 146.8682,98.4348 L149.2452,83.5528 C149.7862,80.1668 151.7842,77.6708 153.7162,77.9808 C154.8252,78.1558 155.6592,79.2418 156.0722,80.7678 C155.7322,80.4578 155.3512,80.2388 154.9202,80.1708" id="Fill-219" fill="#230753" opacity="0.100000001"></path>
                <path d="M53.7014,64.4676 C53.1524,65.0506 53.1944,65.9876 53.7994,66.5666 C54.4074,67.1426 55.3424,67.1416 55.8944,66.5676 L60.3094,61.9466 C60.8654,61.3706 60.8194,60.4356 60.2124,59.8536 C59.6064,59.2756 58.6714,59.2746 58.1184,59.8506 L53.7014,64.4676 Z" id="Fill-221" fill="#DDDDDD"></path>
                <path d="M60.4812,60.7665 C59.8762,60.1865 58.9402,60.1845 58.3862,60.7615 L53.9702,65.3795 C53.7282,65.6355 53.6222,65.9625 53.6062,66.2915 C53.2202,65.7225 53.2282,64.9695 53.7012,64.4675 L58.1182,59.8505 C58.6712,59.2745 59.6062,59.2755 60.2122,59.8535 C60.5532,60.1805 60.6982,60.6165 60.6772,61.0405 C60.6132,60.9455 60.5662,60.8465 60.4812,60.7665" id="Fill-223" fill="#230753" opacity="0.100000001"></path>
                <path d="M69.9734,62.6463 C69.8354,63.9493 70.7764,65.1183 72.0804,65.2573 C73.3814,65.3943 74.5514,64.4543 74.6894,63.1483 L74.7164,62.2313 L69.9944,62.0523 L69.9734,62.6463 Z" id="Fill-225" fill="#00ADD4"></path>
                <path d="M69.9944,62.0526 C69.8724,63.1986 70.8264,64.2436 72.1314,64.3846 C73.4324,64.5206 74.5894,63.7036 74.7094,62.5556 C74.8344,61.4066 73.8784,60.3656 72.5744,60.2266 C71.2704,60.0856 70.1184,60.9046 69.9944,62.0526" id="Fill-227" fill="#00B8E2"></path>
                <path d="M76.9138,68.62 C76.8068,69.637 77.5408,70.549 78.5618,70.66 C79.5778,70.767 80.4898,70.032 80.5978,69.016 L80.6198,68.298 L76.9318,68.155 L76.9138,68.62 Z" id="Fill-229" fill="#B5052F"></path>
                <path d="M76.9319,68.1551 C76.8369,69.0511 77.5819,69.8691 78.6009,69.9771 C79.6179,70.0851 80.5199,69.4461 80.6169,68.5501 C80.7109,67.6531 79.9649,66.8381 78.9439,66.7301 C77.9289,66.6221 77.0279,67.2591 76.9319,68.1551" id="Fill-231" fill="#CE0636"></path>
                <path d="M84.261,65.5585 C84.154,66.5755 84.889,67.4885 85.907,67.5975 C86.926,67.7065 87.837,66.9705 87.946,65.9545 L87.966,65.2375 L84.278,65.0955 L84.261,65.5585 Z" id="Fill-233" fill="#B5052F"></path>
                <path d="M84.2781,65.0956 C84.1851,65.9916 84.9281,66.8076 85.9481,66.9156 C86.9641,67.0236 87.8681,66.3866 87.9641,65.4896 C88.0581,64.5916 87.3131,63.7776 86.2911,63.6696 C85.2761,63.5606 84.3761,64.1986 84.2781,65.0956" id="Fill-235" fill="#CE0636"></path>
                <path d="M81.2469,58.0965 C81.1109,59.3975 82.0519,60.5655 83.3559,60.7075 C84.6579,60.8425 85.8269,59.9015 85.9649,58.5985 L85.9909,57.6825 L81.2689,57.5015 L81.2469,58.0965 Z" id="Fill-237" fill="#00ADD4"></path>
                <path d="M81.2688,57.5018 C81.1478,58.6478 82.1018,59.6908 83.4068,59.8328 C84.7068,59.9708 85.8638,59.1548 85.9868,58.0038 C86.1098,56.8568 85.1518,55.8148 83.8468,55.6778 C82.5458,55.5358 81.3938,56.3538 81.2688,57.5018" id="Fill-239" fill="#00B8E2"></path>
                <path d="M75.8294,60.2792 C75.6914,61.5812 76.6324,62.7492 77.9374,62.8912 C79.2374,63.0262 80.4094,62.0882 80.5454,60.7822 L80.5744,59.8652 L75.8514,59.6852 L75.8294,60.2792 Z" id="Fill-241" fill="#00ADD4"></path>
                <path d="M75.8513,59.6854 C75.7293,60.8314 76.6853,61.8754 77.9903,62.0164 C79.2903,62.1534 80.4443,61.3374 80.5683,60.1894 C80.6913,59.0404 79.7343,57.9984 78.4313,57.8604 C77.1283,57.7194 75.9763,58.5384 75.8513,59.6854" id="Fill-243" fill="#00B8E2"></path>
                <path d="M33.2034,12.8768 C33.2034,13.8548 32.4114,14.6478 31.4334,14.6478 C30.4554,14.6478 29.6634,13.8548 29.6634,12.8768 C29.6634,11.8988 30.4554,11.1068 31.4334,11.1068 C32.4114,11.1068 33.2034,11.8988 33.2034,12.8768" id="Fill-245" fill="#FFFFFF"></path>
            </g>
        </g>
    </g>
</svg>