<?xml version="1.0" encoding="UTF-8"?>
<svg width="57px" height="58px" viewBox="0 0 57 58" version="1.1" xmlns="http://www.w3.org/2000/svg" xmlns:xlink="http://www.w3.org/1999/xlink">
    <!-- Generator: Sketch 53 (72520) - https://sketchapp.com -->
    <title>moon</title>
    <desc>Created with Sketch.</desc>
    <g id="Design" stroke="none" stroke-width="1" fill="none" fill-rule="evenodd">
        <g id="Index-moonly" transform="translate(-296.000000, -28.000000)">
            <g id="moon" transform="translate(296.000000, 28.000000)">
                <path d="M21.8594673,50.0227735 L24.1469303,50.2860813 C25.9208812,50.4900651 27.1939633,52.0197149 26.9756234,53.6844413 L26.7621463,55.3222436 C26.5442926,56.9865136 24.914767,58.1816666 23.1408161,57.9772265 L20.8543257,57.7139187 C19.0798885,57.5099349 17.8068065,55.9807414 18.0241738,54.3155587 L18.2391097,52.6777564 C18.4564771,51.0134864 20.0860027,49.8183334 21.8594673,50.0227735" id="Fill-2" fill="#C2C2C2"></path>
                <path d="M48.1716225,35.1233287 L49.3549243,31.8013848 C49.8685837,30.3604746 51.3855285,29.6326756 52.726698,30.1847291 L55.3232702,31.2528766 C56.6639685,31.8044237 57.341622,33.4352605 56.8284337,34.8766773 L55.645132,38.1981146 C55.1319438,39.6395313 53.6145278,40.3673303 52.2733582,39.8152768 L49.6767861,38.7466228 C48.3356166,38.1950758 47.6584343,36.5647454 48.1716225,35.1233287" id="Fill-4" fill="#C2C2C2"></path>
                <path d="M51.1671577,11.3262765 L52.3406045,12.88133 C53.4399641,14.3381596 53.1326214,16.4192773 51.6575676,17.5054064 L50.5137557,18.348337 C49.038702,19.4349382 46.9322335,19.1308221 45.833352,17.6735203 L44.6594272,16.1179946 C43.5600676,14.661165 43.8674103,12.5805195 45.3419861,11.4939182 L46.4867539,10.6514598 C47.9613297,9.5653308 50.0677981,9.8689747 51.1671577,11.3262765" id="Fill-6" fill="#D6D6D6"></path>
                <path d="M24.9769385,0.00153558058 L28.3108493,0.109834201 C29.841782,0.160032703 31.0509826,1.38478319 30.9983445,2.83077893 L30.9019233,5.45969308 C30.8492852,6.90568882 29.5535022,8.04816955 28.0225696,7.99843584 L24.6886587,7.88920762 C23.158218,7.83993872 21.9490174,6.61565303 22.0016555,5.16872769 L22.0975848,2.54074314 C22.1507148,1.0947474 23.4464978,-0.0477333196 24.9769385,0.00153558058" id="Fill-8" fill="#D6D6D6"></path>
                <path d="M12.0663293,16.8146937 L10.7671159,18.4052361 C9.28120138,20.2218655 6.52941292,20.533231 4.64906687,19.0978756 C2.77077249,17.6625202 2.44814901,15.0010392 3.93355058,13.1844098 L5.23378986,11.594859 C6.71867852,9.77822964 9.47046698,9.46686412 11.3503001,10.9017237 C13.2296203,12.3370791 13.5517309,14.9980643 12.0663293,16.8146937" id="Fill-10" fill="#D6D6D6"></path>
                <path d="M56,29.0002429 C56,44.4632086 43.4639626,57 27.9997571,57 C12.5355516,57 0,44.4632086 0,29.0002429 C0,13.5363057 12.5355516,1 27.9997571,1 C43.4639626,1 56,13.5363057 56,29.0002429" id="Fill-12" fill="#F6F6F6"></path>
                <path d="M28,45.6655411 C14.527532,45.6655411 3.27983068,36.3752964 0.606224628,24 C0.211304257,25.8284598 0,27.7228313 0,29.6669924 C0,44.7617433 12.5359287,57 28,57 C43.4640713,57 56,44.7617433 56,29.6669924 C56,27.7228313 55.7891815,25.8284598 55.3942611,24 C52.7206551,36.3752964 41.4729537,45.6655411 28,45.6655411" id="Fill-14" fill="#230753" opacity="0.100000001"></path>
                <path d="M20.8870682,13.1896439 C21.3357053,14.3646439 20.4076332,15.9040744 18.8125811,16.6284238 C17.2179887,17.3522719 15.5618005,16.9863376 15.1127037,15.8108363 C14.6645263,14.635335 15.5930581,13.0959046 17.1871908,12.3715552 C18.7822429,11.6477071 20.4379714,12.0136414 20.8870682,13.1896439" id="Fill-16" fill="#E3E3E3"></path>
                <path d="M13.6243713,17.2432937 C12.9010126,15.4386438 14.3973626,13.0729786 16.9669568,11.9601452 C18.8662647,11.1380383 20.8186452,11.2330736 22,12.0679541 C20.917419,10.8871653 18.6873907,10.6332268 16.5241944,11.5697849 C13.9550917,12.6810855 12.4587417,15.0467506 13.1821004,16.8524225 C13.3703112,17.3224899 13.6926776,17.7062079 14.1089037,18 C13.9054591,17.7787618 13.7383789,17.5283998 13.6243713,17.2432937" id="Fill-18" fill="#E3E3E3"></path>
                <path d="M20.885961,13.6281291 C20.7754222,13.3743933 20.5919648,13.1641298 20.3550959,13 C20.6639544,14.0180482 19.7424878,15.2831782 18.2074842,15.8935635 C16.9887702,16.3788553 15.7352226,16.3109854 15,15.7995216 C15.0153268,15.8492041 15.0311181,15.8988866 15.0515538,15.947682 C15.5053204,16.9879098 17.1787298,17.3117334 18.7899031,16.6711837 C20.4006119,16.0301904 21.3392631,14.6679133 20.885961,13.6281291" id="Fill-20" fill="#230753" opacity="0.100000001"></path>
                <path d="M30.9961001,6.80616935 C31.0644529,7.34796571 30.2261384,7.87388384 29.1236733,7.98077148 C28.0212081,8.08804638 27.0722061,7.73562702 27.0038533,7.19383065 C26.9359414,6.65203429 27.7738149,6.12611616 28.8762801,6.01922852 C29.9787452,5.91195362 30.9281882,6.26437298 30.9961001,6.80616935" id="Fill-22" fill="#E3E3E3" opacity="0.100000001"></path>
                <path d="M36.5878569,16.5439321 C36.1726088,16.2977032 36.0916579,15.6340394 36.3697392,15 C36.3303881,15.0557862 36.2906622,15.1119572 36.2558083,15.1738992 C35.8697926,15.8602622 35.9271328,16.6358832 36.3839806,16.9063503 C36.8412031,17.1772021 37.5240388,16.840561 37.9096798,16.154198 C37.9449084,16.092256 37.9715173,16.0291598 38,15.9660637 C37.6034906,16.5304665 37.0034797,16.790161 36.5878569,16.5439321" id="Fill-24" fill="#E3E3E3"></path>
                <path d="M25.4942628,7.73233626 C25.3737522,6.58554873 26.8469822,5.47205339 28.7843473,5.24515438 C29.6037226,5.14988753 30.3737321,5.22876439 31,5.43824902 C30.3122668,5.08125443 29.3452782,4.91786665 28.2964972,5.04027944 C26.359616,5.26769063 24.886386,6.3801616 25.0068966,7.52746131 C25.0756216,8.1886952 25.6617193,8.71522382 26.5144891,9 C25.9317792,8.69883383 25.5489523,8.2578405 25.4942628,7.73233626" id="Fill-26" fill="#230753" opacity="0.100000001"></path>
                <path d="M30.9949865,6.80559262 C30.9201549,6.33711668 29.9955312,6.01046224 28.8311063,6 C29.4728439,6.13252173 29.9161644,6.3851655 29.9677528,6.70290766 C30.0550564,7.24461929 28.9768012,7.77121879 27.5595362,7.87855365 C27.3690558,7.89289079 27.1814099,7.89831566 27,7.89637821 C27.452391,7.99015089 28.0028567,8.02541252 28.5879037,7.98085112 C30.0051686,7.87390376 31.0828569,7.34769175 30.9949865,6.80559262" id="Fill-28" fill="#230753" opacity="0.100000001"></path>
                <path d="M8.1810345,23.2446199 C9.20318747,23.8988675 9.27863887,25.6623227 8.35044426,27.184688 C7.42224964,28.7060812 5.84109194,29.4099078 4.81941351,28.7551741 C3.79726055,28.1009264 3.72086007,26.3369852 4.64952922,24.8151059 C5.57772384,23.2937127 7.15888154,22.5903722 8.1810345,23.2446199" id="Fill-30" fill="#E3E3E3"></path>
                <path d="M7.70424958,22.4186416 C8.80946168,23.0332854 9.04234051,24.5316131 8.36391253,26 C9.31082477,24.5247695 9.19246074,22.8707491 8.06270975,22.2432735 C7.47714461,21.918201 6.73183614,21.9301774 6,22.2120495 C6.61395326,22.0871532 7.21058496,22.1448963 7.70424958,22.4186416" id="Fill-32" fill="#230753" opacity="0.100000001"></path>
                <path d="M2.89809556,29.5718887 C1.44118439,28.6344189 1.23481744,26.2240732 2.34169472,24 C2.22419392,24.1628612 2.10866792,24.3313207 2.00153484,24.5089412 C0.570296119,26.8689018 0.686809516,29.6054788 2.26270258,30.6208166 C3.83810195,31.6351365 6.27500928,30.5444754 7.7057543,28.1840059 C7.81338108,28.0058765 7.90965275,27.8252023 8,27.6445282 C6.54654474,29.6461941 4.35451303,30.5108853 2.89809556,29.5718887" id="Fill-34" fill="#230753" opacity="0.100000001"></path>
                <path d="M7.13047605,23.2529908 C6.04547051,22.5763547 4.36708683,23.3037636 3.38181718,24.877219 C3.22717618,25.124548 3.10225447,25.3764014 3,25.6297629 C3.98728452,24.5389009 5.3226372,24.1075831 6.23789025,24.6781492 C7.15263958,25.249218 7.3506002,26.6361711 6.80003796,28 C6.9833908,27.7974113 7.15666931,27.5742119 7.31030287,27.3278882 C8.29607624,25.7534275 8.21548159,23.9296268 7.13047605,23.2529908" id="Fill-36" fill="#230753" opacity="0.100000001"></path>
                <path d="M15.5465494,34.822401 C17.7590519,36.1642735 18.6369387,38.6745323 17.5067365,40.4296426 C16.3765342,42.1847529 13.6665152,42.5188405 11.4535384,41.1774282 C9.2405617,39.8360159 8.36314915,37.3257571 9.49335137,35.5706468 C10.6235536,33.8155365 13.3340469,33.4809887 15.5465494,34.822401" id="Fill-38" fill="#E3E3E3"></path>
                <path d="M9.49283731,38.0958384 C10.6237861,36.3131991 13.3360698,35.9724691 15.5500337,37.3353889 C16.6477611,38.0112401 17.4151737,38.9787449 17.7749132,40 C18.4568995,38.271111 17.5532795,36.0682848 15.5500337,34.8353004 C13.3360698,33.472848 10.6237861,33.8126432 9.49283731,35.5952825 C8.92285433,36.4940804 8.86447972,37.5873141 9.22896509,38.6258627 C9.30157741,38.4440466 9.38510531,38.2655022 9.49283731,38.0958384" id="Fill-40" fill="#230753" opacity="0.100000001"></path>
                <path d="M20.7603116,38.2317337 C20.8018342,39.1866969 20.6094941,40.126645 20.1465414,40.9674931 C18.6130704,43.7528025 14.7361998,44.4159714 11.4874176,42.4484869 C9.70624305,41.3703995 8.48872528,39.7252401 8,38 C8.09497689,40.2052243 9.4537668,42.4960349 11.720803,43.8684191 C14.9695852,45.8354031 18.8459785,45.1727347 20.3799268,42.3879258 C21.0724467,41.1296567 21.1631282,39.653668 20.7603116,38.2317337" id="Fill-42" fill="#230753" opacity="0.100000001"></path>
                <path d="M18.3370199,50.7332587 C19.2240894,49.2311433 21.5837816,49.0975763 23.6079703,50.4368426 C25.0033933,51.3594826 25.8739547,52.7393327 25.9909682,54 C26.1011843,52.6155264 25.1966356,50.9726519 23.6079703,49.9226096 C21.5837816,48.5848844 19.2240894,48.717424 18.3370199,50.2190256 C18.0617224,50.6854828 17.961217,51.2295116 18.0131691,51.7976852 C18.0437577,51.4180466 18.1462053,51.0558744 18.3370199,50.7332587" id="Fill-44" fill="#230753" opacity="0.100000001"></path>
                <path d="M23.7802716,52.0413084 C23.7421215,52.2578497 23.6821713,52.4669605 23.5716847,52.6559033 C22.9052967,53.7980521 21.1320604,53.8988923 19.6120021,52.8814671 C18.861882,52.3783272 18.3163852,51.6979208 18.032489,51 C17.8392613,52.0911978 18.5185312,53.4482955 19.7878889,54.2974767 C21.3084427,55.3159634 23.0811835,55.2151232 23.748067,54.0724437 C24.0849769,53.4934083 24.072095,52.7583358 23.7802716,52.0413084" id="Fill-46" fill="#230753" opacity="0.100000001"></path>
                <path d="M42.4112068,34.2646762 C45.7860505,36.4804011 46.9949065,40.8448462 45.111565,44.012343 C43.2272571,47.1798397 38.9638897,47.9509019 35.589046,45.7356846 C32.2137192,43.5189444 31.0053464,39.155007 32.8882048,35.9880178 C34.7720295,32.8200134 39.0363631,32.0489513 42.4112068,34.2646762" id="Fill-48" fill="#E3E3E3"></path>
                <path d="M34.7880171,40.746172 C36.6840754,37.671828 40.9751293,36.9229493 44.3718894,39.0735121 C44.9899684,39.4647027 45.5321857,39.9253616 46,40.4347962 C45.6771011,38.4197213 44.4467786,36.4736221 42.4782625,35.2271333 C39.0815024,33.0770632 34.7899623,33.8254491 32.8934176,36.8997932 C31.3421413,39.4149416 31.8775505,42.7075444 33.9841739,45 C33.7492942,43.5372232 33.9904957,42.0389731 34.7880171,40.746172" id="Fill-50" fill="#230753" opacity="0.100000001"></path>
                <path d="M47.7867794,39 C47.8002378,40.8165401 47.3296728,42.6767374 46.3255766,44.3532735 C43.6098543,48.8906093 38.0327701,50.3669245 33.8697841,47.6511469 C31.8149677,46.3098177 30.490272,44.198717 30,41.8582908 C30.022591,44.9564451 31.4573575,47.9266387 34.0817546,49.6393049 C38.2452213,52.3550825 43.8218248,50.8787673 46.5380278,46.3404279 C47.9136733,44.043157 48.2900292,41.4016467 47.7867794,39" id="Fill-52" fill="#230753" opacity="0.100000001"></path>
                <path d="M21.958641,26.450345 C21.7662508,26.9438009 20.9566884,27.1411832 20.151412,26.8925492 C19.3461355,26.6439153 18.8489689,26.0424498 19.041359,25.5498411 C19.2337492,25.0563852 20.0428353,24.8585793 20.848588,25.1076369 C21.6538645,25.3562709 22.1510311,25.9577363 21.958641,26.450345" id="Fill-54" fill="#E3E3E3"></path>
                <path d="M22.6229038,25 C22.7862075,25.2947326 22.8334924,25.6063723 22.7272232,25.8933367 C22.4600876,26.6144034 21.3379234,26.9036526 20.2196589,26.5399206 C19.7048868,26.3722201 19.2817597,26.0939377 19,25.7722451 C19.2471491,26.218228 19.7628962,26.6239994 20.4360972,26.8428783 C21.5533867,27.2066103 22.6760384,26.9173611 22.9426865,26.1967514 C23.0869787,25.8083441 22.9509735,25.3751557 22.6229038,25" id="Fill-56" fill="#230753" opacity="0.100000001"></path>
                <path d="M19.4487604,26.1118373 C19.6543249,25.5022728 20.5193244,25.2577138 21.3797445,25.5656381 C21.6148208,25.6489034 21.8219119,25.7677789 22,25.905507 C21.7893472,25.5823959 21.4306268,25.2954188 20.9747212,25.1330777 C20.1137923,24.8251534 19.2493017,25.0697124 19.0437371,25.6798006 C18.8946519,26.1223109 19.1373606,26.6344708 19.6095485,27 C19.4228104,26.7135466 19.352084,26.3982907 19.4487604,26.1118373" id="Fill-58" fill="#230753" opacity="0.100000001"></path>
                <path d="M34.2060926,24.0771059 C33.7405354,23.9058527 33.2621433,24.030176 33,24.3479825 C33.1987466,24.3117558 33.417329,24.3273991 33.632411,24.4068508 C34.215816,24.6209173 34.5526352,25.2128937 34.3826699,25.7287118 C34.3496102,25.8299817 34.2990485,25.92096 34.2356518,26 C34.5713041,25.9353684 34.8505607,25.7221251 34.9563514,25.3997903 C35.12515,24.8831489 34.7894976,24.2915842 34.2060926,24.0771059" id="Fill-60" fill="#230753" opacity="0.100000001"></path>
                <path d="M33.6201158,27.3651146 C32.1789298,26.9823117 31.2787761,25.7260266 31.6092241,24.5607766 C31.6675108,24.3554923 31.7648121,24.1693254 31.8851459,24 C31.4903004,24.2635468 31.1965166,24.6340599 31.0686618,25.0837735 C30.7372737,26.2494787 31.6374274,27.5057639 33.0790835,27.8890219 C34.2622098,28.2040035 35.4321746,27.8262076 36,27.0378432 C35.3738879,27.4511428 34.4991171,27.5995301 33.6201158,27.3651146" id="Fill-62" fill="#230753" opacity="0.100000001"></path>
                <path d="M48.8848369,26 C48.9017684,26.3241691 48.8177156,26.6777429 48.6187707,26.9782447 C48.236603,27.5555812 47.5968348,27.7176658 47.1898745,27.3382732 C47.1118687,27.2658372 47.0495851,27.1783402 47,27.0808026 C47.0223737,27.3633748 47.117311,27.6222797 47.304162,27.7951221 C47.7105176,28.1737975 48.3496811,28.0124301 48.7318488,27.4358108 C49.0329874,26.9803963 49.0753161,26.4102317 48.8848369,26" id="Fill-64" fill="#230753" opacity="0.100000001"></path>
                <path d="M36.3058564,15.3820957 C36.8068469,15.1580333 37.4289741,15.2153963 37.694817,15.5091415 C37.8263681,15.6554366 37.8461008,15.8313757 37.771007,16 C38.0220504,15.7740126 38.0790559,15.4841173 37.8800848,15.2639047 C37.6142419,14.9701596 36.9921147,14.9127965 36.4911242,15.136474 C36.2389845,15.2488902 36.0772863,15.4117398 36,15.581904 C36.084412,15.5076015 36.1808828,15.4375339 36.3058564,15.3820957" id="Fill-66" fill="#230753" opacity="0.100000001"></path>
                <path d="M48.9637961,18.7434008 C48.8087595,18.1510922 48.2023944,17.8515102 47.6086619,18.0729404 C47.3514161,18.1689163 47.1464234,18.3498995 47,18.5685875 C47.1085256,18.4767249 47.2279611,18.3978875 47.364623,18.3471574 C47.9577812,18.1257272 48.5652948,18.4253092 48.7203313,19.0169322 C48.8081853,19.3555902 48.7266476,19.7127577 48.533139,20 C48.8966136,19.6956192 49.0838058,19.2006576 48.9637961,18.7434008" id="Fill-68" fill="#230753" opacity="0.100000001"></path>
                <path d="M37.7843693,10.293669 C37.9160163,9.6866004 38.9714142,9.37784179 40.1412394,9.6024885 C40.4573033,9.66309086 40.7455936,9.75817389 41,9.87363185 C40.6778259,9.51785415 40.0873586,9.21118527 39.3702435,9.07326264 C38.2004182,8.84861593 37.1455758,9.15789699 37.0133733,9.7644431 C36.9172766,10.2085122 37.3472123,10.686017 38.0409976,11 C37.8354727,10.7743084 37.7332658,10.5292868 37.7843693,10.293669" id="Fill-70" fill="#230753" opacity="0.100000001"></path>
                <path d="M4.29663656,41.3901471 C3.41734691,39.7700811 2.04943863,38.7213688 1.25298467,39.0653622 C1.0912312,39.1347514 1.03078353,39.2617189 1,39.2799274 C1.53171557,39.4408514 2.61025864,40.3630882 3.38936188,41.7976243 C4.13880099,43.1775347 4.03917428,44.460005 3.89589093,44.9663987 C4.18581584,45.0549806 4.41809159,44.9413004 4.43768111,44.9334265 C5.23973208,44.5973071 5.17592621,43.0107053 4.29663656,41.3901471" id="Fill-72" fill="#230753" opacity="0.100000001"></path>
                <path d="M4.20171957,41.6405669 C4.93360678,43.2850892 5.21299343,44.7800626 4.82541058,44.9780859 C4.43782773,45.176625 3.53042223,44.0039553 2.79853501,42.3594331 C2.06616693,40.7143951 1.78726115,39.2199374 2.17436313,39.0219141 C2.56194598,38.823375 3.46983235,39.9960447 4.20171957,41.6405669" id="Fill-74" fill="#C2C2C2"></path>
                <path d="M3.33426603,41.4836384 C3.27492968,41.3157684 3.21278688,41.1576143 3.15144592,41 C3.63415514,42.5156882 3.79853287,43.8095289 3.50666218,43.9973706 C3.2151924,44.1846726 2.57171375,43.1990434 2,41.7400315 C2.05171885,41.9035834 2.10504138,42.067675 2.16477865,42.2360848 C2.77457992,43.9574273 3.53111837,45.1848757 3.85426093,44.9770623 C4.1778044,44.7692489 3.94446822,43.2049809 3.33426603,41.4836384" id="Fill-76" fill="#230753" opacity="0.100000001"></path>
                <path d="M47.6068243,19.6557362 C47.0221111,19.8825371 46.4160743,19.5799865 46.2533422,18.9793675 C46.1628108,18.6440966 46.233141,18.2900004 46.4119593,18 C46.0793872,18.3128597 45.9188997,18.8005265 46.0404812,19.2483014 C46.2028392,19.8489203 46.8088759,20.1514709 47.3939633,19.9246701 C47.65209,19.8238199 47.8585914,19.6346697 48,19.4051795 C47.8870228,19.5114083 47.7549666,19.5979154 47.6068243,19.6557362" id="Fill-78" fill="#230753" opacity="0.100000001"></path>
            </g>
        </g>
    </g>
</svg>