<?xml version="1.0" encoding="UTF-8"?>
<svg width="31px" height="99px" viewBox="0 0 31 99" version="1.1" xmlns="http://www.w3.org/2000/svg" xmlns:xlink="http://www.w3.org/1999/xlink">
    <!-- Generator: Sketch 53 (72520) - https://sketchapp.com -->
    <title>rocket</title>
    <desc>Created with Sketch.</desc>
    <defs>
        <polygon id="path-1" points="0 0.096881662 47.9123631 0.096881662 47.9123631 54 0 54"></polygon>
        <path d="M19.46,1.79 L6.468,19.532 C6.282,19.786 6.567,20.115 6.844,19.969 L6.844,19.969 L7.827,19.452 L0.926,30.399 C0.742,30.689 1.116,31.005 1.372,30.778 L1.372,30.778 L16.867,16.985 L16.722,17.936 C16.679,18.221 17.026,18.394 17.226,18.188 L17.226,18.188 L26.91,8.25 C28.186,6.778 27.663,4.215 25.747,2.555 L25.747,2.555 L25.263,2.134 C24.229,1.238 22.992,0.78 21.872,0.78 L21.872,0.78 C20.917,0.781 20.047,1.113 19.46,1.79" id="path-3"></path>
        <linearGradient x1="75.5267716%" y1="15.1339632%" x2="9.59657099%" y2="91.653421%" id="linearGradient-5">
            <stop stop-color="#F0C13B" offset="0%"></stop>
            <stop stop-color="#FF1100" offset="100%"></stop>
        </linearGradient>
        <polygon id="path-6" points="0.4733 0.404435757 12.759 0.404435757 12.759 12.5993 0.4733 12.5993"></polygon>
    </defs>
    <g id="Design" stroke="none" stroke-width="1" fill="none" fill-rule="evenodd">
        <g id="Index-moonly" transform="translate(-919.000000, -320.000000)">
            <g id="IMAGE" transform="translate(812.000000, -649.000000)">
                <g id="rocket" transform="translate(71.301376, 966.582346)">
                    <g transform="translate(50.000000, 51.000000) rotate(-40.000000) translate(-50.000000, -51.000000) translate(18.000000, 12.000000)">
                        <g id="Group-6" transform="translate(0.000000, 23.595600)">
                            <g id="Group-3">
                                <mask id="mask-2" fill="white">
                                    <use xlink:href="#path-1"></use>
                                </mask>
                                <g id="Clip-2"></g>
                                <path d="M9.9536,33.7185 L33.2046,1.8695 C35.4736,-0.7475 40.1676,-0.4295 43.6356,2.5765 L44.5106,3.3365 C47.9776,6.3435 48.9586,10.9445 46.6896,13.5615 L29.2886,31.3815 C28.9776,31.6995 28.4406,31.4345 28.5046,30.9945 L28.7856,29.0575 L0.7696,53.8795 C0.3716,54.2325 -0.2074,53.7415 0.0746,53.2915 L12.5816,33.3375 L10.5366,34.3975 C10.1056,34.6205 9.6666,34.1105 9.9536,33.7185" id="Fill-1" fill="#FFFFFF" opacity="0.100000001" mask="url(#mask-2)"></path>
                            </g>
                            <path d="M13.4277,31.6609 L33.8407,4.1249 C35.8207,1.8429 39.6967,1.9309 42.4547,4.3229 L43.1517,4.9269 C45.9097,7.3179 46.5477,11.1429 44.5677,13.4259 L29.5177,28.9989 C29.2507,29.2759 28.7877,29.0369 28.8577,28.6589 L29.1467,27.1119 L5.1227,48.8929 C4.7867,49.1979 4.2907,48.7769 4.5367,48.3959 L15.5617,31.3189 L13.9277,32.2299 C13.5637,32.4339 13.1787,31.9959 13.4277,31.6609" id="Fill-4" fill="#FFFFFF" opacity="0.049999997"></path>
                        </g>
                        <g id="Group-9" transform="translate(15.000000, 28.595600)">
                            <mask id="mask-4" fill="white">
                                <use xlink:href="#path-3"></use>
                            </mask>
                            <g id="Clip-8"></g>
                            <path d="M19.46,1.79 L6.468,19.532 C6.282,19.786 6.567,20.115 6.844,19.969 L6.844,19.969 L7.827,19.452 L0.926,30.399 C0.742,30.689 1.116,31.005 1.372,30.778 L1.372,30.778 L16.867,16.985 L16.722,17.936 C16.679,18.221 17.026,18.394 17.226,18.188 L17.226,18.188 L26.91,8.25 C28.186,6.778 27.663,4.215 25.747,2.555 L25.747,2.555 L25.263,2.134 C24.229,1.238 22.992,0.78 21.872,0.78 L21.872,0.78 C20.917,0.781 20.047,1.113 19.46,1.79" id="Fill-7" fill="url(#linearGradient-5)" mask="url(#mask-4)"></path>
                        </g>
                        <g id="Group-48" transform="translate(15.000000, 0.595600)">
                            <g id="Group-14" transform="translate(0.000000, 28.000000)" fill="#230753" opacity="0.100000001">
                                <path d="M20.0161,2.7185 C21.2921,1.2475 23.9041,1.4025 25.8191,3.0635 L26.3031,3.4825 C26.6381,3.7725 26.9121,4.0945 27.1601,4.4295 C26.8461,3.7545 26.3811,3.1035 25.7471,2.5545 L25.2631,2.1345 C23.3481,0.4735 20.7361,0.3185 19.4601,1.7905 L6.6051,19.3445 C6.3871,19.6435 6.7221,20.0325 7.0501,19.8605 L7.7231,19.5065 L20.0161,2.7185 Z" id="Fill-10"></path>
                                <path d="M2.4106,29.8528 L8.3826,20.3808 L6.6746,21.2798 L0.9606,30.3418 C0.7726,30.6408 1.1586,30.9678 1.4226,30.7328 L2.4106,29.8528 Z" id="Fill-12"></path>
                            </g>
                            <path d="M27.3452,36.2312 C27.7362,36.5252 28.2912,36.4472 28.5852,36.0572 L29.6122,34.6942 C31.6162,32.0352 31.0852,28.2542 28.4262,26.2512 C25.7662,24.2462 21.9862,24.7772 19.9822,27.4372 L18.9542,28.7982 C18.6602,29.1892 18.7382,29.7452 19.1292,30.0392 L27.3452,36.2312 Z" id="Fill-15" fill="#DDDDDD"></path>
                            <path d="M28.3164,36.0022 L19.0974,29.0542 C18.7584,28.7992 18.6914,28.3182 18.9464,27.9792 C19.2014,27.6402 19.6824,27.5732 20.0214,27.8282 L29.2404,34.7752 C29.5794,35.0312 29.6474,35.5122 29.3924,35.8512 L29.3914,35.8512 C29.1364,36.1902 28.6554,36.2572 28.3164,36.0022" id="Fill-17" fill="#FF1200"></path>
                            <polygon id="Fill-19" fill="#F4F2ED" points="33.1191 32.073 21.7971 23.54 36.4731 4.066 47.7951 12.599"></polygon>
                            <g id="Group-23" transform="translate(36.000000, 0.000000)">
                                <mask id="mask-7" fill="white">
                                    <use xlink:href="#path-6"></use>
                                </mask>
                                <g id="Clip-22"></g>
                                <path d="M12.7163,3.4593 C12.7163,3.4593 13.0793,2.0103 11.6893,0.9623 C10.2993,-0.0847 9.0073,0.6633 9.0073,0.6633 L0.4733,4.0653 L6.1343,8.3333 L11.7963,12.5993 L12.7163,3.4593 Z" id="Fill-21" fill="#FF1200" mask="url(#mask-7)"></path>
                            </g>
                            <path d="M34.4316,33.0291 C34.1446,33.4101 33.6036,33.4861 33.2226,33.1991 L20.7046,23.7651 C20.3246,23.4791 20.2486,22.9371 20.5356,22.5561 C20.8226,22.1751 21.3646,22.0991 21.7446,22.3861 L34.2626,31.8201 C34.6426,32.1071 34.7186,32.6481 34.4316,33.0291" id="Fill-24" fill="#FF1200"></path>
                            <path d="M40.8061,18.3865 C39.1471,20.5875 36.0191,21.0275 33.8181,19.3685 C31.6161,17.7085 31.1771,14.5805 32.8351,12.3795 C34.4941,10.1785 37.6221,9.7385 39.8251,11.3975 C42.0261,13.0565 42.4651,16.1855 40.8061,18.3865" id="Fill-26" fill="#FF1200"></path>
                            <polygon id="Fill-28" fill="#FF1200" points="34.8095 29.8299 23.4875 21.2959 24.4115 20.0699 35.7335 28.6029"></polygon>
                            <path d="M30.0332,12.6111 L21.2602,13.5691 C21.2602,13.5691 19.5012,13.6711 18.2232,15.3661 L12.9532,22.3601 L20.6542,20.2331 C20.6542,20.2331 22.1232,19.8381 23.6942,21.0221 L30.0332,12.6111 Z" id="Fill-30" fill="#DDDDDD"></path>
                            <path d="M13.3974,24.3465 L13.3974,24.3465 C12.7124,23.8305 12.5764,22.8585 13.0924,22.1745 L18.3894,15.1455 C18.3894,15.1455 19.4054,13.7905 21.5394,13.5165 L13.3974,24.3465 Z" id="Fill-32" fill="#FF1200"></path>
                            <path d="M25.9272,13.0594 L20.4852,20.2794 L20.6542,20.2324 C20.6542,20.2324 20.9252,20.1674 21.3452,20.1744 L26.7782,12.9664 L25.9272,13.0594 Z" id="Fill-34" fill="#FF1200"></path>
                            <path d="M41.3554,21.1438 L42.8524,29.8418 C42.8524,29.8418 43.2384,31.5608 41.9614,33.2558 L36.6904,40.2488 L36.6134,32.2598 C36.6134,32.2598 36.5874,30.7388 35.0164,29.5548 L41.3554,21.1438 Z" id="Fill-36" fill="#DDDDDD"></path>
                            <path d="M34.6572,40.3694 L34.6572,40.3694 C35.3422,40.8854 36.3142,40.7484 36.8302,40.0644 L42.1272,33.0364 C42.1272,33.0364 43.1492,31.6854 42.8242,29.5584 L34.6572,40.3694 Z" id="Fill-38" fill="#FF1200"></path>
                            <path d="M41.9062,24.344 L36.4702,31.556 C36.6002,31.97 36.6132,32.26 36.6132,32.26 L36.6142,32.401 L42.0512,25.188 L41.9062,24.344 Z" id="Fill-40" fill="#FF1200"></path>
                            <path d="M40.2446,17.3245 C38.9266,19.6205 35.7966,20.0155 33.9486,18.0755 C32.8716,16.9455 32.5696,15.2195 33.2156,13.7975 C34.3366,11.3305 37.3996,10.7175 39.3696,12.3855 C40.7886,13.5875 41.1716,15.7095 40.2446,17.3245" id="Fill-42" fill="#040028"></path>
                            <path d="M37.4755,12.3684 C37.5695,12.3894 37.6625,12.4134 37.7545,12.4434" id="Stroke-44" stroke="#F4F2ED" stroke-width="0.3" stroke-linecap="round" stroke-linejoin="round"></path>
                            <path d="M34.9726,12.9134 C35.5746,12.4624 36.3166,12.2534 37.0496,12.3074" id="Stroke-46" stroke="#F4F2ED" stroke-width="0.3" stroke-linecap="round" stroke-linejoin="round"></path>
                        </g>
                    </g>
                </g>
            </g>
        </g>
    </g>
</svg>