<?xml version="1.0" encoding="UTF-8"?>
<svg width="67px" height="83px" viewBox="0 0 67 83" version="1.1" xmlns="http://www.w3.org/2000/svg" xmlns:xlink="http://www.w3.org/1999/xlink">
    <!-- Generator: Sketch 53 (72520) - https://sketchapp.com -->
    <title>Group 12</title>
    <desc>Created with Sketch.</desc>
    <defs>
        <polygon id="path-1" points="62.0555295 59.616108 65.3829185 59.616108 65.3829185 62.9453455 62.0555295 62.9453455"></polygon>
        <polygon id="path-3" points="63.1176185 59.6194206 65.3829185 59.6194206 65.3829185 62.9433315 63.1176185 62.9433315"></polygon>
    </defs>
    <g id="Design" stroke="none" stroke-width="1" fill="none" fill-rule="evenodd">
        <g id="Index-moonly" transform="translate(-1220.000000, -512.000000)">
            <g id="Group-12" transform="translate(1221.000000, 513.000000)">
                <path d="M47.8085185,39.5675322 L19.8975185,22.2455322 C17.4695185,20.7365322 14.2785185,21.4825322 12.7705185,23.9125322 L7.88051848,31.7905322 C6.37251848,34.2205322 7.12151848,37.4105322 9.54951848,38.9195322 L37.4585185,56.2425322 L47.8085185,39.5675322 Z" id="Fill-3" fill="#F4F2ED"></path>
                <path d="M11.2387185,26.5616322 C12.7457185,24.1316322 15.9367185,23.3856322 18.3647185,24.8946322 L46.1957185,42.1666322 L47.8087185,39.5676322 L19.8977185,22.2456322 C17.4687185,20.7366322 14.2787185,21.4826322 12.7707185,23.9126322 L7.88071848,31.7906322 C7.71071848,32.0656322 7.57571848,32.3516322 7.46271848,32.6436322 L11.2387185,26.5616322 Z" id="Fill-5" fill="#230753"></path>
                <polygon id="Fill-7" fill="#DDDDDD" points="42.4931185 48.1329322 42.4921185 48.1339322 37.4591185 56.2419322 47.3651185 58.1119322 50.4791185 53.0919322 50.4801185 53.0909322 53.5971185 48.0709322 47.8081185 39.5679322"></polygon>
                <polygon id="Fill-9" fill="#FF0E00" points="56.1571185 49.6808322 49.9331185 59.7058322 47.3651185 58.1128322 53.5871185 48.0848322"></polygon>
                <polygon id="Fill-11" fill="#DDDDDD" points="63.2089185 51.1241322 56.1609185 49.6751322 53.1989185 54.4461322 53.0489185 54.6871322 49.9339185 59.7061322 54.3609185 65.3771322 58.7829185 58.2551322 58.6349185 58.1521322 58.7859185 58.2481322"></polygon>
                <polygon id="Fill-13" fill="#230753" points="40.8925185 50.7276322 40.8925185 50.7266322 46.2095185 42.1616322 51.9485185 50.5936322 54.5575185 52.2736322 54.5605185 52.2676322 61.5995185 53.7156322 63.2085185 51.1236322 56.1615185 49.6746322 56.1575185 49.6796322 53.5465185 48.0006322 47.8085185 39.5676322 42.4935185 48.1326322 42.4925185 48.1336322 37.4585185 56.2426322 37.4675185 56.2426322"></polygon>
                <polygon id="Fill-15" fill="#230753" points="57.0351185 60.7462322 57.1751185 60.8432322 57.1801185 60.8372322"></polygon>
                <path d="M24.3764185,22.8165322 C24.9914185,23.1995322 25.1834185,24.0085322 24.8004185,24.6245322 L13.8204185,42.3125322 C13.4384185,42.9285322 12.6294185,43.1175322 12.0144185,42.7355322 C11.3974185,42.3525322 11.2084185,41.5435322 11.5904185,40.9275322 L22.5694185,23.2405322 C22.9524185,22.6235322 23.7624185,22.4345322 24.3764185,22.8165322" id="Fill-18" fill="#FF0E00"></path>
                <path d="M24.3764185,22.8165322 C23.9534185,22.5545322 23.4464185,22.5775322 23.0414185,22.8085322 C23.1604185,22.8405322 23.2804185,22.8705322 23.3914185,22.9385322 C24.0064185,23.3205322 24.1964185,24.1295322 23.8134185,24.7455322 L12.8344185,42.4335322 C12.7154185,42.6265322 12.5474185,42.7595322 12.3624185,42.8665322 C12.9094185,43.0145322 13.5074185,42.8185322 13.8204185,42.3125322 L24.8004185,24.6245322 C25.1834185,24.0085322 24.9914185,23.1995322 24.3764185,22.8165322" id="Fill-20" fill="#230753"></path>
                <path d="M31.8573185,57.9425322 C32.0863185,58.0855322 32.1763185,58.3565322 32.0573185,58.5505322 L18.2613185,80.7755322 C18.1423185,80.9675322 17.8593185,81.0075322 17.6293185,80.8655322 L0.254318479,70.0815322 C0.0243184786,69.9385322 -0.0666815214,69.6675322 0.0523184786,69.4735322 L13.8493185,47.2495322 C13.9693185,47.0535322 14.2513185,47.0155322 14.4823185,47.1595322 L31.8573185,57.9425322 Z" id="Stroke-22" stroke="#FF0E00"></path>
                <path d="M3.10391848,71.8497322 L17.3329185,48.9267322" id="Stroke-24" stroke="#FF0E00"></path>
                <path d="M6.71621848,74.0919322 L20.9442185,51.1699322" id="Stroke-26" stroke="#FF0E00"></path>
                <path d="M10.3266185,76.3331322 L24.5556185,53.4101322" id="Stroke-28" stroke="#FF0E00"></path>
                <path d="M13.9389185,78.5753322 L28.1679185,55.6513322" id="Stroke-30" stroke="#FF0E00"></path>
                <path d="M2.25431848,65.9268322 L20.4633185,77.2288322" id="Stroke-32" stroke="#FF0E00"></path>
                <path d="M4.62251848,62.1134322 L22.8315185,73.4154322" id="Stroke-34" stroke="#FF0E00"></path>
                <path d="M6.98871848,58.2979322 L25.1997185,69.5999322" id="Stroke-36" stroke="#FF0E00"></path>
                <path d="M9.35781848,54.4825322 L27.5668185,65.7855322" id="Stroke-38" stroke="#FF0E00"></path>
                <path d="M11.7250185,50.6700322 L29.9350185,61.9700322" id="Stroke-40" stroke="#FF0E00"></path>
                <path d="M22.3510185,52.0431322 L24.6710185,48.3041322" id="Stroke-42" stroke="#FF0E00"></path>
                <path d="M46.8456185,33.7940322 C47.0756185,33.9360322 47.3606185,33.8970322 47.4796185,33.7030322 L61.2766185,11.4760322 C61.3966185,11.2850322 61.3046185,11.0130322 61.0746185,10.8710322 L43.6996185,0.0850321812 C43.4696185,-0.0569678188 43.1876185,-0.0169678188 43.0676185,0.174032181 L29.2726185,22.4000322 C29.1526185,22.5960322 29.2416185,22.8660322 29.4716185,23.0100322 L46.8456185,33.7940322 Z" id="Stroke-44" stroke="#FF0E00"></path>
                <path d="M46.5497185,1.85563218 L32.3217185,24.7776322" id="Stroke-46" stroke="#FF0E00"></path>
                <path d="M50.1601185,4.09583218 L35.9341185,27.0198322" id="Stroke-48" stroke="#FF0E00"></path>
                <path d="M53.7734185,6.33903218 L39.5444185,29.2610322" id="Stroke-50" stroke="#FF0E00"></path>
                <path d="M57.3847185,8.58113218 L43.1557185,31.5031322" id="Stroke-52" stroke="#FF0E00"></path>
                <path d="M40.8661185,3.72083218 L59.0741185,15.0238322" id="Stroke-54" stroke="#FF0E00"></path>
                <path d="M38.4980185,7.53623218 L56.7070185,18.8382322" id="Stroke-56" stroke="#FF0E00"></path>
                <path d="M36.1288185,11.3517322 L54.3398185,22.6527322" id="Stroke-58" stroke="#FF0E00"></path>
                <path d="M33.7616185,15.1661322 L51.9716185,26.4681322" id="Stroke-60" stroke="#FF0E00"></path>
                <path d="M31.3954185,18.9806322 L49.6024185,30.2826322" id="Stroke-62" stroke="#FF0E00"></path>
                <path d="M37.3417185,27.8927322 L35.0217185,31.6287322" id="Stroke-64" stroke="#FF0E00"></path>
                <path d="M58.7860185,58.2481322 L64.2050185,61.6091322" id="Stroke-66" stroke="#72727C"></path>
                <mask id="mask-2" fill="white">
                    <use xlink:href="#path-1"></use>
                </mask>
                <g id="Clip-69"></g>
                <path d="M64.5976185,59.8663322 C65.3776185,60.3503322 65.6176185,61.3783322 65.1326185,62.1583322 C64.6496185,62.9383322 63.6216185,63.1793322 62.8416185,62.6963322 C62.0606185,62.2103322 61.8226185,61.1833322 62.3046185,60.4023322 C62.7886185,59.6233322 63.8166185,59.3813322 64.5976185,59.8663322" id="Fill-68" fill="#FF0E00" mask="url(#mask-2)"></path>
                <mask id="mask-4" fill="white">
                    <use xlink:href="#path-3"></use>
                </mask>
                <g id="Clip-72"></g>
                <path d="M64.5976185,59.8663322 C64.1856185,59.6113322 63.7106185,59.5623322 63.2776185,59.6803322 C63.3716185,59.7173322 63.4646185,59.7613322 63.5526185,59.8153322 C64.3336185,60.3003322 64.5736185,61.3283322 64.0896185,62.1073322 C63.8606185,62.4773322 63.5076185,62.7223322 63.1176185,62.8303322 C63.8506185,63.1153322 64.7036185,62.8503322 65.1326185,62.1583322 C65.6176185,61.3783322 65.3776185,60.3503322 64.5976185,59.8663322" id="Fill-71" fill="#230753" mask="url(#mask-4)"></path>
                <path d="M28.1171185,46.6065322 C28.3831185,46.7695322 28.4641185,47.1155322 28.3001185,47.3805322 C28.1351185,47.6435322 27.7891185,47.7255322 27.5241185,47.5615322 L17.9911185,41.6435322 C17.7261185,41.4795322 17.6451185,41.1335322 17.8091185,40.8695322 C17.9721185,40.6035322 18.3181185,40.5245322 18.5831185,40.6885322 L28.1171185,46.6065322 Z" id="Fill-74" fill="#72727C" mask="url(#mask-4)"></path>
            </g>
        </g>
    </g>
</svg>