<?xml version="1.0" encoding="UTF-8"?>
<svg width="11px" height="19px" viewBox="0 0 11 19" version="1.1" xmlns="http://www.w3.org/2000/svg" xmlns:xlink="http://www.w3.org/1999/xlink">
    <!-- Generator: Sketch 53 (72520) - https://sketchapp.com -->
    <title>fb</title>
    <desc>Created with Sketch.</desc>
    <g id="Design" stroke="none" stroke-width="1" fill="none" fill-rule="evenodd">
        <g id="Index-moonly" transform="translate(-1558.000000, -450.000000)" fill="#F9F9F9">
            <g id="Group" transform="translate(1552.000000, 256.000000)">
                <path d="M16.5857723,194.003953 L13.9473725,194 C10.9832208,194 9.06765572,195.835305 9.06765572,198.675926 L9.06765572,200.83184 L6.41486271,200.83184 C6.18562989,200.83184 6,201.005389 6,201.219458 L6,204.343133 C6,204.557203 6.18584156,204.730554 6.41486271,204.730554 L9.06765572,204.730554 L9.06765572,212.61258 C9.06765572,212.826649 9.25328561,213 9.48251842,213 L12.9436587,213 C13.1728915,213 13.3585214,212.826452 13.3585214,212.61258 L13.3585214,204.730554 L16.4602552,204.730554 C16.689488,204.730554 16.8751179,204.557203 16.8751179,204.343133 L16.8763878,201.219458 C16.8763878,201.116673 16.8325733,201.018237 16.7548923,200.945497 C16.6774231,200.872757 16.5715908,200.83184 16.4613135,200.83184 L13.3585214,200.83184 L13.3585214,199.004245 C13.3585214,198.125828 13.5826743,197.6799 14.8082126,197.6799 L16.585349,197.679307 C16.8143701,197.679307 17,197.505758 17,197.291886 L17,194.391374 C17,194.177699 16.8145818,194.004349 16.5857723,194.003953" id="fb"></path>
            </g>
        </g>
    </g>
</svg>