<?xml version="1.0" encoding="UTF-8"?>
<svg width="16px" height="16px" viewBox="0 0 16 16" version="1.1" xmlns="http://www.w3.org/2000/svg" xmlns:xlink="http://www.w3.org/1999/xlink">
    <!-- Generator: Sketch 53 (72520) - https://sketchapp.com -->
    <title>in</title>
    <desc>Created with Sketch.</desc>
    <g id="Design" stroke="none" stroke-width="1" fill="none" fill-rule="evenodd">
        <g id="Index-moonly" transform="translate(-1555.000000, -404.000000)" fill="#F9F9F9">
            <g id="Group" transform="translate(1552.000000, 256.000000)">
                <path d="M17.1877802,152.218618 C17.1877802,152.420016 17.1183489,152.590182 16.9792308,152.729044 C16.8404046,152.868015 16.6703106,152.93741 16.4688394,152.93741 L14.6564006,152.93741 C14.4551118,152.93741 14.2847989,152.867979 14.1459727,152.729044 C14.0070736,152.590182 13.9377152,152.420016 13.9377152,152.218618 L13.9377152,150.500027 C13.9377152,150.305562 14.0070736,150.137184 14.1459727,149.994783 C14.2848354,149.852455 14.4551483,149.781199 14.6564006,149.781199 L16.4688394,149.781199 C16.6703106,149.781199 16.8404046,149.852418 16.9792308,149.994783 C17.1183124,150.137184 17.1877802,150.305562 17.1877802,150.500027 L17.1877802,152.218618 Z M17.1877802,161.520952 C17.1877802,161.70137 17.1250986,161.852345 17.0001733,161.97395 C16.8749561,162.095445 16.7258776,162.156229 16.5520986,162.156229 L5.41681603,162.156229 C5.23628727,162.156229 5.08512909,162.095445 4.96370635,161.97395 C4.84210118,161.8526 4.78135333,161.70137 4.78135333,161.520952 L4.78135333,154.77071 L6.25006499,154.77071 C6.11123881,155.208275 6.04180748,155.663207 6.04180748,156.135323 C6.04180748,157.46896 6.52786329,158.605907 7.50008437,159.547075 C8.47241491,160.487878 9.64253171,160.958498 11.0105807,160.958498 C11.9133705,160.958498 12.7466194,160.743127 13.5108019,160.312604 C14.2746925,159.881825 14.878486,159.296897 15.3232406,158.557236 C15.7677398,157.817611 15.9899711,157.010271 15.9899711,156.135359 C15.9899711,155.663243 15.9202844,155.208421 15.7814582,154.770746 L17.1878532,154.77071 L17.1878532,161.520988 L17.1877802,161.520988 L17.1877802,161.520952 Z M8.74499583,153.765547 C9.37341688,153.157998 10.1286605,152.854078 11.0106172,152.854078 C11.8993966,152.854078 12.6580334,153.157998 13.2866004,153.765547 C13.9151674,154.373205 14.2292684,155.107649 14.2292684,155.968732 C14.2292684,156.829706 13.9151674,157.564186 13.2866004,158.171662 C12.6580334,158.779466 11.899652,159.08335 11.0106172,159.08335 C10.128697,159.08335 9.37352634,158.779211 8.74499583,158.171662 C8.11642883,157.564113 7.80218181,156.829706 7.80218181,155.968732 C7.80218181,155.107649 8.11642883,154.373242 8.74499583,153.765547 L8.74499583,153.765547 Z M18.396024,148.604265 C17.9932274,148.201361 17.5105283,148 16.9481819,148 L5.05218296,148 C4.48965417,148 4.00710093,148.201434 3.60419489,148.604265 C3.20136181,149.006987 3,149.489611 3,150.052028 L3,161.947863 C3,162.510207 3.20132532,162.99294 3.60419489,163.395698 C4.00710093,163.798493 4.48976362,164 5.05218296,164 L16.948036,164 C17.5102729,164 17.993118,163.798493 18.3958781,163.395698 C18.7988206,162.99294 19,162.510207 19,161.947863 L19,150.052028 C18.9999635,149.489501 18.7988206,149.007133 18.396024,148.604265 L18.396024,148.604265 Z" id="in"></path>
            </g>
        </g>
    </g>
</svg>