<?xml version="1.0" encoding="UTF-8"?>
<svg width="23px" height="22px" viewBox="0 0 23 22" version="1.1" xmlns="http://www.w3.org/2000/svg" xmlns:xlink="http://www.w3.org/1999/xlink">
    <!-- Generator: Sketch 53 (72520) - https://sketchapp.com -->
    <title>mail</title>
    <desc>Created with Sketch.</desc>
    <g id="Design" stroke="none" stroke-width="1" fill="none" fill-rule="evenodd">
        <g id="Index-moonly" transform="translate(-1025.000000, -4416.000000)" fill="#FFFFFF">
            <g id="mail" transform="translate(1025.000000, 4416.000000)">
                <polygon id="Path" points="11.5 0 23 8 0 8"></polygon>
                <path d="M23,19.8299095 L22.9988483,19.8299095 C22.9988483,21.0286442 22.0781009,22 20.9421073,22 L2.05674098,22 C0.920619377,22 0,21.0285092 0,19.8299095 L0,8.37117837 C0,8.24439172 0.0122851627,8.12111568 0.032248552,8 L10.885166,15.140424 C10.8984749,15.1492005 10.9126796,15.1551415 10.9263725,15.1632429 C10.9407052,15.1716143 10.9552938,15.1797157 10.9698824,15.187412 C11.0465367,15.2291341 11.1254945,15.2627549 11.2062438,15.2847636 C11.2145619,15.287194 11.22288,15.2882742 11.2311981,15.2902996 C11.3197536,15.3123083 11.4094609,15.3260807 11.4990402,15.3260807 L11.4996801,15.3260807 C11.5003199,15.3260807 11.5009598,15.3260807 11.5009598,15.3260807 C11.5905391,15.3260807 11.6802464,15.3127134 11.7688019,15.2902996 C11.77712,15.2881392 11.7854381,15.287194 11.7937562,15.2847636 C11.8743775,15.2627549 11.9530794,15.2291341 12.0301176,15.187412 C12.0447062,15.1797157 12.0592948,15.1716143 12.0736275,15.1632429 C12.0871924,15.1551415 12.1015251,15.1492005 12.114834,15.140424 L22.9677514,8 C22.9877148,8.12111568 23,8.24412168 23,8.37117837 L23,19.8299095 Z" id="Path"></path>
            </g>
        </g>
    </g>
</svg>