<?xml version="1.0" encoding="UTF-8"?>
<svg width="17px" height="17px" viewBox="0 0 17 17" version="1.1" xmlns="http://www.w3.org/2000/svg" xmlns:xlink="http://www.w3.org/1999/xlink">
    <!-- Generator: Sketch 53 (72520) - https://sketchapp.com -->
    <title>sk</title>
    <desc>Created with Sketch.</desc>
    <g id="Design" stroke="none" stroke-width="1" fill="none" fill-rule="evenodd">
        <g id="Index-moonly" transform="translate(-1555.000000, -539.000000)" fill="#F9F9F9">
            <g id="Group" transform="translate(1552.000000, 256.000000)">
                <path d="M15.8702632,295.33179 C15.6356238,295.764606 15.3215098,296.110859 14.9266597,296.369236 C14.5318096,296.627614 14.0965915,296.82566 13.6210052,296.962063 C13.1441575,297.099777 12.6458643,297.166667 12.127387,297.166667 C10.9264371,297.166667 9.89074404,296.925339 9.02409221,296.441372 C8.15617889,295.957406 7.72222222,295.37376 7.72222222,294.694371 C7.72222222,294.362545 7.81305036,294.084494 7.99470664,293.86284 C8.17510141,293.641186 8.44380133,293.529703 8.79954487,293.529703 C9.00643119,293.529703 9.19817948,293.590035 9.37605125,293.708076 C9.55392302,293.826116 9.71665677,293.967765 9.8667755,294.134333 C10.0156327,294.300902 10.177105,294.46747 10.3511922,294.634039 C10.5252795,294.800607 10.7561344,294.942256 11.0450183,295.060297 C11.3326407,295.179649 11.6581082,295.238669 12.0201593,295.238669 C12.4831305,295.238669 12.8552736,295.142925 13.140373,294.955372 C13.4254724,294.766507 13.5667607,294.529114 13.5667607,294.24057 C13.5667607,293.944157 13.4532255,293.722503 13.2261551,293.574296 C13.0697289,293.470683 12.6710943,293.336903 12.0315128,293.17427 L10.4748194,292.776866 C10.0471703,292.673253 9.68133472,292.552589 9.37605125,292.416186 C9.06950628,292.278472 8.78566835,292.1001 8.52201445,291.878445 C8.25962204,291.656791 8.06030474,291.377428 7.92532403,291.041668 C7.79034333,290.704597 7.72222222,290.311128 7.72222222,289.85995 C7.72222222,289.320898 7.84206491,288.846112 8.07922727,288.435593 C8.31765113,288.025074 8.63428812,287.703741 9.02913822,287.470283 C9.42398832,287.238136 9.84911448,287.063698 10.3032552,286.949593 C10.7586574,286.834175 11.2279361,286.777778 11.7110913,286.777778 C12.3935639,286.777778 13.0407144,286.861718 13.6525428,287.032221 C14.2643712,287.202724 14.768972,287.451921 15.1663451,287.781123 C15.5649797,288.110326 15.764297,288.477563 15.764297,288.884148 C15.764297,289.215973 15.6633769,289.501894 15.4602751,289.737975 C15.2584347,289.974056 14.9897348,290.092097 14.6541753,290.092097 C14.469996,290.092097 14.2996933,290.048815 14.143267,289.959629 C13.9868408,289.870443 13.8455526,289.762895 13.7168794,289.638296 C13.5882062,289.512386 13.4532255,289.389099 13.3106758,289.265812 C13.1681261,289.145149 12.9763778,289.038912 12.7354309,288.951037 C12.4932225,288.861851 12.2194766,288.817258 11.9141931,288.817258 C10.8898536,288.817258 10.3776838,289.101867 10.3776838,289.671085 C10.3776838,289.796995 10.4041753,289.907167 10.4584199,290.004222 C10.511403,290.099966 10.5694321,290.177349 10.6337687,290.236369 C10.6981053,290.296701 10.8040714,290.355721 10.9541902,290.41343 C11.1030474,290.473762 11.2279361,290.515732 11.3275947,290.541963 C11.4272534,290.568194 11.5836796,290.60623 11.7968735,290.658692 L12.9057336,290.924939 C13.2539082,291.006256 13.5654992,291.091508 13.8392451,291.179383 C14.1117295,291.268569 14.4069209,291.394479 14.7185119,291.557113 C15.0313644,291.719746 15.2912338,291.89943 15.4968586,292.1001 C15.7037449,292.299457 15.8765707,292.552589 16.0140744,292.859494 C16.1541011,293.1664 16.2222222,293.503472 16.2222222,293.874644 C16.2222222,294.413696 16.106164,294.900286 15.8702632,295.33179 M19.1138061,293.160468 C19.2316162,292.592362 19.2918303,292.038654 19.2918303,291.500655 C19.2918303,290.44429 19.0863171,289.436359 18.6765997,288.472934 C18.2668823,287.510819 17.7144837,286.679603 17.016786,285.983214 C16.3190883,285.285516 15.4891815,284.733118 14.5270655,284.3234 C13.5649496,283.913683 12.5544006,283.70817 11.4993455,283.70817 C10.961346,283.70817 10.4076384,283.768384 9.83953184,283.886194 C9.07245707,283.295834 8.20982521,283 7.25032725,283 C6.07746208,283 5.07607608,283.414953 4.24486024,284.246169 C3.41495341,285.074767 3,286.076153 3,287.250327 C3,288.208516 3.2958343,289.072457 3.88619389,289.839532 C3.76838377,290.407638 3.70816971,290.961346 3.70816971,291.500655 C3.70816971,292.554401 3.91368291,293.563641 4.32340032,294.527066 C4.73180873,295.489181 5.28551629,296.319088 5.98321398,297.016786 C6.67960268,297.714484 7.51081851,298.266882 8.47293447,298.6766 C9.43635944,299.086317 10.4442904,299.29183 11.4993455,299.29183 C12.038654,299.29183 12.5910526,299.232925 13.1604682,299.113806 C13.9275429,299.704166 14.7901748,300 15.7509818,300 C16.9225379,300 17.9252329,299.583738 18.7538308,298.75514 C19.5837376,297.925233 20,296.922538 20,295.749673 C20,294.790175 19.7041657,293.927543 19.1138061,293.160468" id="sk"></path>
            </g>
        </g>
    </g>
</svg>