<?xml version="1.0" encoding="UTF-8"?>
<svg width="19px" height="17px" viewBox="0 0 19 17" version="1.1" xmlns="http://www.w3.org/2000/svg" xmlns:xlink="http://www.w3.org/1999/xlink">
    <!-- Generator: Sketch 53 (72520) - https://sketchapp.com -->
    <title>tg</title>
    <desc>Created with Sketch.</desc>
    <g id="Design" stroke="none" stroke-width="1" fill="none" fill-rule="evenodd">
        <g id="Index-moonly" transform="translate(-1554.000000, -579.000000)" fill="#F9F9F9">
            <g id="Group" transform="translate(1552.000000, 256.000000)">
                <path d="M8.46836662,332.859528 L17.3083143,327.498378 C17.4672192,327.401748 17.6304421,327.613796 17.4948548,327.738162 L10.1990481,334.415443 C9.94255485,334.650754 9.77674106,334.965694 9.73010593,335.306582 L9.48138524,337.12107 C9.44856793,337.362644 9.10312253,337.386801 9.03576068,337.152385 L8.07974055,333.845507 C7.97006163,333.467936 8.12983013,333.064419 8.46836662,332.859528 M2.33584722,331.151511 L6.713504,332.830897 L8.40791367,338.430937 C8.51672897,338.789719 8.94335404,338.921243 9.22661926,338.684143 L11.667191,336.639712 C11.9228206,336.42498 12.2872655,336.415138 12.554122,336.613765 L16.95596,339.898275 C17.2582247,340.124639 17.6883042,339.953747 17.7643022,339.577966 L20.989035,323.639459 C21.0710783,323.227888 20.6781342,322.885211 20.2972806,323.036419 L2.33066554,330.159269 C1.8867682,330.335529 1.89108627,330.979726 2.33584722,331.151511" id="tg"></path>
            </g>
        </g>
    </g>
</svg>