<?xml version="1.0" encoding="UTF-8"?>
<svg width="39px" height="43px" viewBox="0 0 39 43" version="1.1" xmlns="http://www.w3.org/2000/svg" xmlns:xlink="http://www.w3.org/1999/xlink">
    <!-- Generator: Sketch 53 (72520) - https://sketchapp.com -->
    <title>hourglass</title>
    <desc>Created with Sketch.</desc>
    <g id="Design" stroke="none" stroke-width="1" fill="none" fill-rule="evenodd">
        <g id="Index-moonly" transform="translate(-357.000000, -2415.000000)" fill="#3A386B" fill-rule="nonzero">
            <g id="hourglass" transform="translate(357.000000, 2415.000000)">
                <path d="M18.5313488,20.0926458 C18.5313488,20.6220833 18.9657907,21.0485 19.5,21.0485 C20.0342093,21.0485 20.4686512,20.6193958 20.4686512,20.0926458 C20.4695581,18.9728542 20.8722558,17.8844167 21.6032791,17.028 C23.2294884,15.1234583 24.4484651,13.0585625 25.2203023,10.8906458 C25.3246047,10.5977083 25.2792558,10.2734167 25.0978605,10.0198958 C24.9155581,9.766375 24.6216977,9.615875 24.3069767,9.615875 L14.6921163,9.615875 C14.3773953,9.615875 14.0826279,9.766375 13.9003256,10.0198958 C13.7189302,10.2734167 13.6735814,10.5977083 13.7778837,10.8906458 C14.5515349,13.0585625 15.7686977,15.1234583 17.394907,17.028 C18.1268372,17.8844167 18.5304419,18.97375 18.5313488,20.0926458 Z" id="Path"></path>
                <path d="M20.4686512,23.9277083 C20.4686512,23.3991667 20.0342093,22.9718542 19.5,22.9718542 C18.9657907,22.9718542 18.5313488,23.4009583 18.5313488,23.9277083 C18.5304419,25.3090833 17.6951163,26.6752292 16.1795581,27.783375 C12.9380233,30.1474792 10.5118605,32.7158333 8.96818605,35.415875 C8.7985814,35.7132917 8.80130233,36.0752083 8.97634884,36.36725 C9.14867442,36.6619792 9.46793023,36.8420417 9.8125814,36.8420417 L29.1892326,36.8420417 C29.5329767,36.8420417 29.8513256,36.6619792 30.0254651,36.36725 C30.1986977,36.0752083 30.2014186,35.7132917 30.0327209,35.415875 C28.4899535,32.7158333 26.0628837,30.1474792 22.8222558,27.783375 C21.3048837,26.6752292 20.4695581,25.3090833 20.4686512,23.9277083 Z" id="Path"></path>
                <path d="M36.4532093,38.2780625 L35.8736512,38.2780625 C35.2079302,30.831 30.7927674,25.1137917 27.3607674,21.0529792 C30.7936744,16.9930625 35.2070233,11.2749583 35.8754651,3.82789583 L36.4550233,3.82789583 C37.5252558,3.82789583 38.3923256,2.97058333 38.3923256,1.9135 C38.3923256,0.856416667 37.5252558,0 36.4550233,0 L2.54588372,0 C1.47565116,0 0.608581395,0.8573125 0.608581395,1.9135 C0.608581395,2.97058333 1.47565116,3.82789583 2.54588372,3.82789583 L3.12544186,3.82789583 C3.79206977,11.2758542 8.2054186,16.9939583 11.6383256,21.0529792 C8.20632558,25.1128958 3.79206977,30.8301042 3.12453488,38.2780625 L2.54588372,38.2780625 C1.47565116,38.2780625 0.608581395,39.1335833 0.608581395,40.1906667 C0.608581395,41.2486458 1.47565116,42.1059583 2.54588372,42.1059583 L4.9684186,42.1059583 L34.0315814,42.1059583 L36.4550233,42.1059583 C37.5252558,42.1059583 38.3923256,41.2486458 38.3923256,40.1906667 C38.3923256,39.1335833 37.5243488,38.2780625 36.4532093,38.2780625 Z M7.00911628,38.2780625 C7.7374186,31.5494583 12.166186,26.3679583 15.4757442,22.4961667 L15.6526047,22.2892292 C16.262093,21.5770417 16.262093,20.5342917 15.6526047,19.8212083 L15.4766512,19.6151667 C12.168,15.7424792 7.7374186,10.5609792 7.00911628,3.83147917 L31.9908837,3.83147917 C31.2625814,10.5609792 26.832,15.7424792 23.5233488,19.6151667 L23.3483023,19.8212083 C22.738814,20.5333958 22.738814,21.5761458 23.3483023,22.2892292 L23.5251628,22.4961667 C26.833814,26.3679583 31.2625814,31.5494583 31.9908837,38.2780625 L7.00911628,38.2780625 Z" id="Shape"></path>
            </g>
        </g>
    </g>
</svg>