<?xml version="1.0" encoding="UTF-8"?>
<svg width="48px" height="49px" viewBox="0 0 48 49" version="1.1" xmlns="http://www.w3.org/2000/svg" xmlns:xlink="http://www.w3.org/1999/xlink">
    <!-- Generator: Sketch 53 (72520) - https://sketchapp.com -->
    <title>percentage</title>
    <desc>Created with Sketch.</desc>
    <g id="Design" stroke="none" stroke-width="1" fill="none" fill-rule="evenodd">
        <g id="Index-moonly" transform="translate(-870.000000, -2519.000000)" fill="#3A386B" fill-rule="nonzero">
            <g id="percentage" transform="translate(870.000000, 2519.000000)">
                <ellipse id="Oval" cx="17.5163" cy="20.2977239" rx="2.04" ry="2.04417178"></ellipse>
                <ellipse id="Oval" cx="30.4763" cy="28.5946564" rx="2.04" ry="2.04417178"></ellipse>
                <path d="M47.2963,27.1517117 L46.5563,26.1396462 C45.7563,25.0373967 45.7363,23.5443497 46.5263,22.4220593 L47.2463,21.3999734 C48.3463,19.8367832 47.8363,17.6623456 46.1463,16.7504847 L45.0463,16.1592781 C43.8463,15.5179693 43.1863,14.175229 43.4163,12.8224683 L43.6263,11.589953 C43.9463,9.70610838 42.5363,7.9625501 40.6263,7.8823865 L39.3763,7.83228425 C38.0163,7.77216155 36.8363,6.85028016 36.4563,5.53760123 L36.1063,4.33514724 C35.5763,2.49138446 33.5563,1.53944172 31.7963,2.30099591 L30.6463,2.79199796 C29.3963,3.33310225 27.9363,3.01244785 27.0263,1.99036196 L26.1963,1.05846012 C24.9263,-0.364443763 22.6963,-0.354423313 21.4363,1.09854192 L20.6163,2.04046421 C19.7163,3.07257055 18.2663,3.41326585 17.0063,2.89220245 L15.8463,2.41122086 C14.0763,1.67972802 12.0763,2.67175256 11.5663,4.51551534 L11.2363,5.72798978 C10.8763,7.05068916 9.7163,7.99261145 8.3563,8.0627546 L7.1063,8.13289775 C5.1963,8.2431227 3.8163,10.0067219 4.1663,11.8905665 L4.3963,13.1230818 C4.6463,14.4658221 4.0063,15.8185828 2.8163,16.4799325 L1.7263,17.09118 C0.0563,18.0230818 -0.4237,20.2075399 0.7063,21.7506892 L1.4463,22.7627546 C2.2463,23.8650041 2.2663,25.3580511 1.4763,26.4803415 L0.7563,27.5024274 C-0.3437,29.0656176 0.1663,31.2400552 1.8563,32.1519162 L2.9563,32.7431227 C4.1563,33.3844315 4.8163,34.7271718 4.5863,36.0799325 L4.3763,37.3124479 C4.0563,39.1962924 5.4663,40.9398507 7.3763,41.0200143 L8.6263,41.0701166 C9.9863,41.1302393 11.1663,42.0521207 11.5463,43.3647996 L11.8963,44.5672536 C12.4263,46.4110164 14.4463,47.3629591 16.2063,46.6014049 L17.3563,46.1104029 C18.6063,45.5692986 20.0663,45.889953 20.9763,46.9120389 L21.8063,47.8439407 C23.0863,49.2668446 25.3163,49.2568241 26.5663,47.8038589 L27.3863,46.8619366 C28.2863,45.8298303 29.7363,45.489135 30.9963,46.0101984 L32.1563,46.49118 C33.9263,47.2226728 35.9263,46.2306483 36.4363,44.3868855 L36.7663,43.174411 C37.1263,41.8517117 38.2863,40.9097894 39.6463,40.8396462 L40.8963,40.7695031 C42.8063,40.6592781 44.1863,38.8956789 43.8363,37.0118344 L43.6063,35.779319 C43.3563,34.4365787 43.9963,33.083818 45.1863,32.4224683 L46.2763,31.8112209 C47.9463,30.8893395 48.4263,28.7048814 47.2963,27.1517117 Z M12.5863,20.2977239 C12.5863,17.5721616 14.7863,15.3676626 17.5063,15.3676626 C20.2263,15.3676626 22.4263,17.5721616 22.4263,20.2977239 C22.4263,23.0232863 20.2263,25.2277853 17.5063,25.2277853 C14.7863,25.2277853 12.5863,23.0132658 12.5863,20.2977239 Z M18.4563,33.0136748 C18.0363,33.5247178 17.2763,33.5948609 16.7663,33.174002 L16.7663,33.174002 C16.2563,32.7531431 16.1863,31.991589 16.6063,31.480546 L29.5163,15.8987464 C29.9363,15.3877035 30.6963,15.3175603 31.2063,15.7384192 C31.7163,16.1592781 31.7863,16.9208323 31.3663,17.4318753 L18.4563,33.0136748 Z M30.4763,33.5247178 C27.7563,33.5247178 25.5563,31.3202188 25.5563,28.5946564 C25.5563,25.8690941 27.7563,23.6645951 30.4763,23.6645951 C33.1963,23.6645951 35.3963,25.8690941 35.3963,28.5946564 C35.3963,31.3202188 33.1963,33.5247178 30.4763,33.5247178 Z" id="Shape"></path>
            </g>
        </g>
    </g>
</svg>