<?xml version="1.0" encoding="UTF-8"?>
<svg width="37px" height="43px" viewBox="0 0 37 43" version="1.1" xmlns="http://www.w3.org/2000/svg" xmlns:xlink="http://www.w3.org/1999/xlink">
    <!-- Generator: Sketch 53 (72520) - https://sketchapp.com -->
    <title>piggy-bank</title>
    <desc>Created with Sketch.</desc>
    <g id="Design" stroke="none" stroke-width="1" fill="none" fill-rule="evenodd">
        <g id="Index-moonly" transform="translate(-694.000000, -2413.000000)" fill="#3A386B" fill-rule="nonzero">
            <g id="piggy-bank" transform="translate(694.000000, 2413.000000)">
                <path d="M10.884466,21.6522917 C16.8745146,21.6522917 21.7330097,16.8058333 21.7330097,10.830625 C21.7330097,4.85541667 16.8745146,0 10.884466,0 C4.89441748,0 0.0359223301,4.84645833 0.0359223301,10.8216667 C0.0359223301,16.796875 4.89441748,21.6522917 10.884466,21.6522917 Z M7.09466019,15.10375 C7.1934466,14.7454167 7.29223301,14.3960417 7.4,14.0377083 C7.52572816,13.625625 7.64247573,13.5808333 8.01966019,13.7779167 C8.66626214,14.109375 9.34878641,14.2975 10.067233,14.3870833 C10.5252427,14.4408333 10.9832524,14.3960417 11.4053398,14.2079167 C12.2046117,13.8585417 12.3303398,12.9358333 11.6567961,12.3804167 C11.423301,12.1922917 11.1628641,12.0489583 10.8934466,11.9325 C10.1929612,11.6279167 9.46553398,11.395 8.80097087,11.0008333 C7.73228155,10.3647917 7.04975728,9.47791667 7.13058252,8.17895833 C7.22038835,6.70979167 8.05558252,5.78708333 9.4026699,5.30333333 C9.95946602,5.09729167 9.95946602,5.10625 9.9684466,4.52395833 C9.9684466,4.326875 9.9684466,4.12979167 9.9684466,3.93270833 C9.97742718,3.49375 10.0582524,3.42208333 10.4893204,3.40416667 C10.6240291,3.40416667 10.7587379,3.40416667 10.8934466,3.40416667 C11.8274272,3.40416667 11.8274272,3.40416667 11.8274272,4.33583333 C11.8274272,4.98979167 11.8274272,4.99875 12.4830097,5.09729167 C12.9859223,5.17791667 13.4618932,5.32125 13.9288835,5.52729167 C14.1893204,5.64375 14.2791262,5.82291667 14.2072816,6.09166667 C14.090534,6.49479167 13.982767,6.89791667 13.8480583,7.29208333 C13.7223301,7.66833333 13.6055825,7.72208333 13.2463592,7.551875 C12.518932,7.2025 11.7555825,7.05020833 10.9473301,7.095 C10.7317961,7.10395833 10.5342233,7.13083333 10.3366505,7.22041667 C9.64514563,7.525 9.52839806,8.28645833 10.1211165,8.76125 C10.4174757,9.003125 10.7587379,9.17333333 11.1179612,9.31666667 C11.7286408,9.5675 12.348301,9.81833333 12.9410194,10.1408333 C14.8,11.1710417 15.3029126,13.5002083 13.9917476,15.0858333 C13.5157767,15.6591667 12.9050971,16.044375 12.1776699,16.2414583 C11.8633495,16.3310417 11.7196602,16.4922917 11.7376214,16.8147917 C11.7555825,17.1372917 11.7376214,17.4508333 11.7376214,17.7733333 C11.7376214,18.06 11.593932,18.2122917 11.3065534,18.22125 C10.9652913,18.2302083 10.6150485,18.2302083 10.2737864,18.22125 C9.9684466,18.2122917 9.82475728,18.0420833 9.82475728,17.7464583 C9.82475728,17.5135417 9.82475728,17.280625 9.8157767,17.0477083 C9.80679612,16.5370833 9.79781553,16.5102083 9.29490291,16.4295833 C8.65728155,16.3310417 8.03762136,16.1877083 7.4538835,15.9010417 C7.01383495,15.695 6.96893204,15.5785417 7.09466019,15.10375 Z" id="Shape"></path>
                <path d="M35.2218447,22.5570833 L33.9555825,22.5570833 L33.9555825,22.5570833 C33.1203883,20.0039583 31.4859223,17.7375 29.3036408,15.9816667 C29.3036408,15.9010417 29.2856796,15.8114583 29.2677184,15.7308333 C28.8097087,14.1272917 29.3754854,12.6670833 30.031068,11.6189583 C30.4890777,10.884375 29.8963592,9.94375 29.0342233,10.05125 C27.1033981,10.293125 25.7742718,11.0008333 24.8582524,11.798125 C24.2296117,12.3445833 23.7805825,13.0791667 23.5830097,13.894375 C22.2,19.6097917 17.036165,23.865 10.884466,23.865 C7.89393204,23.865 5.14587379,22.8616667 2.94563107,21.1775 C2.18228155,22.8258333 1.76917476,24.6264583 1.76917476,26.5166667 C1.76917476,27.5379167 1.89490291,28.5322917 2.12839806,29.4908333 L2.12839806,29.4908333 C2.12839806,29.4908333 2.12839806,29.50875 2.13737864,29.535625 C2.37985437,30.53 2.74805825,31.4885417 3.21504854,32.3933333 C3.83470874,33.728125 4.73276699,35.286875 5.97208738,36.55 C7.7592233,38.3864583 8.06456311,40.661875 8.10946602,41.6472917 L8.10946602,42.0683333 C8.10946602,42.08625 8.10946602,42.1041667 8.10946602,42.1220833 C8.10946602,42.1310417 8.10946602,42.1310417 8.10946602,42.1310417 L8.10946602,42.1310417 C8.14538835,42.6147917 8.54951456,43 9.0434466,43 L14.7191748,43 C15.231068,43 15.6531553,42.5879167 15.6531553,42.0683333 L15.6531553,40.6708333 C16.4793689,40.7783333 17.3235437,40.8410417 18.176699,40.8410417 C18.8502427,40.8410417 19.5058252,40.8052083 20.1614078,40.7335417 L20.1614078,42.0683333 C20.1614078,42.5789583 20.5745146,43 21.0953883,43 L26.7890777,43 C27.3009709,43 27.7230583,42.5879167 27.7230583,42.0683333 L27.7230583,40.6708333 C27.7320388,40.205 27.8936893,38.350625 29.6538835,36.765 C29.7167476,36.71125 29.7796117,36.6575 29.8424757,36.60375 C29.8604369,36.5858333 29.8783981,36.576875 29.8963592,36.5589583 L29.8963592,36.5589583 C31.8541262,34.8210417 33.3,32.653125 34.0453883,30.234375 L35.2398058,30.234375 C36.1917476,30.234375 36.9640777,29.4639583 36.9640777,28.514375 L36.9640777,24.2770833 C36.9461165,23.3275 36.1737864,22.5570833 35.2218447,22.5570833 Z M28.1182039,22.8616667 C27.3368932,22.8616667 26.7082524,22.2345833 26.7082524,21.4552083 C26.7082524,20.6758333 27.3368932,20.04875 28.1182039,20.04875 C28.8995146,20.04875 29.5281553,20.6758333 29.5281553,21.4552083 C29.5281553,22.2345833 28.8995146,22.8616667 28.1182039,22.8616667 Z" id="Shape"></path>
            </g>
        </g>
    </g>
</svg>