<?xml version="1.0" encoding="UTF-8"?>
<svg width="40px" height="32px" viewBox="0 0 40 32" version="1.1" xmlns="http://www.w3.org/2000/svg" xmlns:xlink="http://www.w3.org/1999/xlink">
    <!-- Generator: Sketch 53.2 (72643) - https://sketchapp.com -->
    <title>obmennie-service</title>
    <desc>Created with Sketch.</desc>
    <g id="Design" stroke="none" stroke-width="1" fill="none" fill-rule="evenodd">
        <g id="obmennie-service" transform="translate(20.000000, 16.000000) scale(1, -1) translate(-20.000000, -16.000000) " fill="#FFFFFF" fill-rule="nonzero">
            <path d="M39.5817601,10.6077861 L29.5815875,0.425862611 C29.0235995,-0.142096222 28.1190663,-0.141925766 27.5612457,0.426203523 C27.2934684,0.698932855 27.1430477,1.06865155 27.142964,1.45430788 L27.142964,5.81797718 L17.1427914,5.81797718 C16.3537733,5.81797718 15.7141714,6.46920369 15.7141714,7.27256202 C15.7141714,8.07592036 16.3537733,8.72714687 17.1427914,8.72714687 L28.571584,8.72714687 C29.3606021,8.72714687 30.000204,8.07592036 30.000204,7.27256202 L30.000204,4.96552756 L36.5517498,11.6361461 L30.000204,18.3067646 L30.000204,15.9998154 C30.000204,15.1964571 29.3606021,14.5452306 28.571584,14.5452306 L12.8570151,14.5452306 L12.8570151,10.1815613 C12.8568476,9.37820292 12.2170783,8.72714687 11.4281439,8.72731732 C11.0494554,8.72740255 10.6862526,8.88055712 10.4183916,9.15320122 L0.418302651,19.3351247 C-0.139434217,19.9031687 -0.139434217,20.8238859 0.418302651,21.3918447 L10.4184753,31.5737682 C10.6863363,31.8465828 11.0496228,31.9999078 11.4284788,31.999993 C11.6162326,32.0005896 11.8023123,31.9630041 11.9755849,31.8894524 C12.509298,31.6641098 12.8571825,31.1337365 12.8570151,30.5454082 L12.8570151,26.1817389 L22.8571877,26.1817389 C23.6462058,26.1817389 24.2858077,25.5305124 24.2858077,24.727154 C24.2858077,23.9237957 23.6462058,23.2725692 22.8571877,23.2725692 L11.4284788,23.2725692 C10.6394606,23.2725692 9.99985875,23.9237957 9.99985875,24.727154 L9.99985875,27.0341032 L3.44831302,20.3634847 L9.99985875,13.6928662 L9.99985875,15.9998154 C9.99985875,16.8031737 10.6394606,17.4544002 11.4284788,17.4544002 L27.142964,17.4544002 L27.142964,21.8180696 C27.1431314,22.6214279 27.7829007,23.2724839 28.5718351,23.2723135 C28.9505237,23.2722283 29.3137265,23.1190737 29.5815875,22.8464296 L39.5817601,12.6645061 C40.1394133,12.0964621 40.1394133,11.1757449 39.5817601,10.6077861 Z" id="Path"></path>
        </g>
    </g>
</svg>