<?xml version="1.0" encoding="UTF-8"?>
<svg width="41px" height="41px" viewBox="0 0 41 41" version="1.1" xmlns="http://www.w3.org/2000/svg" xmlns:xlink="http://www.w3.org/1999/xlink">
    <!-- Generator: Sketch 53.2 (72643) - https://sketchapp.com -->
    <title>razrabotka-sitov</title>
    <desc>Created with Sketch.</desc>
    <g id="Design" stroke="none" stroke-width="1" fill="none" fill-rule="evenodd">
        <g id="razrabotka-sitov" fill="#FFFFFF" fill-rule="nonzero">
            <path d="M20.5,0 C9.11111111,0 0,9.11111111 0,20.5 C0,31.8888889 9.11111111,41 20.5,41 C22.3222222,41 23.9166667,39.4055556 23.9166667,37.5833333 C23.9166667,36.6722222 23.6888889,35.9888889 23.0055556,35.3055556 C22.55,34.6222222 22.0944444,33.9388889 22.0944444,33.0277778 C22.0944444,31.2055556 23.6889782,29.6111111 25.5111111,29.6111111 L29.6111111,29.6111111 C35.9888889,29.6111111 41,24.6 41,18.2222222 C41,8.2 31.8888889,0 20.5,0 Z M7.97222222,20.5 C6.15,20.5 4.55555556,18.9055556 4.55555556,17.0833333 C4.55555556,15.2611111 6.15,13.6666667 7.97222222,13.6666667 C9.79444444,13.6666667 11.3888889,15.2611111 11.3888889,17.0833333 C11.3888889,18.9055556 9.79444444,20.5 7.97222222,20.5 Z M14.8055556,11.3888889 C12.9833333,11.3888889 11.3888889,9.79444444 11.3888889,7.97222222 C11.3888889,6.15 12.9833333,4.55555556 14.8055556,4.55555556 C16.6277778,4.55555556 18.2222222,6.15 18.2222222,7.97222222 C18.2222222,9.79444444 16.6277778,11.3888889 14.8055556,11.3888889 Z M26.1944444,11.3888889 C24.3722222,11.3888889 22.7777778,9.79444444 22.7777778,7.97222222 C22.7777778,6.15 24.3722222,4.55555556 26.1944444,4.55555556 C28.0166667,4.55555556 29.6111111,6.15 29.6111111,7.97222222 C29.6111111,9.79444444 28.0166667,11.3888889 26.1944444,11.3888889 Z M33.0277778,20.5 C31.2055556,20.5 29.6111111,18.9055556 29.6111111,17.0833333 C29.6111111,15.2611111 31.2055556,13.6666667 33.0277778,13.6666667 C34.85,13.6666667 36.4444444,15.2611111 36.4444444,17.0833333 C36.4444444,18.9055556 34.85,20.5 33.0277778,20.5 Z" id="Shape"></path>
        </g>
    </g>
</svg>