<?xml version="1.0" encoding="UTF-8"?>
<svg width="38px" height="41px" viewBox="0 0 38 41" version="1.1" xmlns="http://www.w3.org/2000/svg" xmlns:xlink="http://www.w3.org/1999/xlink">
    <!-- Generator: Sketch 53.2 (72643) - https://sketchapp.com -->
    <title>sysadmins</title>
    <desc>Created with Sketch.</desc>
    <g id="Design" stroke="none" stroke-width="1" fill="none" fill-rule="evenodd">
        <g id="sysadmins" fill="#FFFFFF" fill-rule="nonzero">
            <path d="M20,9 C19.9483486,7.81071097 18.962199,8.01304033 18,8.01304033 C18.7107607,8.24635991 19.3831664,8.57096931 20,9 Z" id="Path"></path>
            <path d="M10.8672524,6 C7.24695162,6 5.58058068,10.6575147 8.47467346,13 C9.46126221,10.3224181 11.4252702,8.39983207 14,7.64097397 C13.2956832,6.65130143 12.1577564,6 10.8672524,6 Z" id="Path"></path>
            <path d="M2.58929288,12.7341 C2.74231486,13.225155 2.94057513,13.6962457 3.17610559,14.1425737 L1.94267651,15.3767661 C1.61144305,15.7080205 1.61144305,16.2456876 1.94267651,16.5776275 L4.11677091,18.7525446 C4.27510496,18.9108886 4.49204316,19 4.71814898,19 C4.94177012,19 5.15725179,18.9108886 5.31832755,18.7525446 L6.55038578,17.5183522 C6.73528019,17.6162033 6.9402234,17.6761821 7.13171506,17.7605808 C7.13171506,17.7465287 7.1303442,17.7319624 7.1303442,17.7179102 C7.1303442,16.7093238 7.24618167,15.7578886 7.45241005,14.8644614 C5.96485825,13.9070283 4.9722717,12.2451014 4.9722717,10.347629 C4.9722717,7.38364788 7.38318174,4.97190016 10.3462903,4.97190016 C12.3527117,4.97190016 14.0850473,6.08896255 15.0097764,7.72098582 C15.9970509,7.59854337 16.924436,7.59854337 18.0407424,7.8094974 C17.8971451,7.37507948 17.7281869,6.94991544 17.5165608,6.55139913 L18.7499899,5.31660691 C18.9108943,5.1575774 19,4.94131097 19,4.71647613 C19,4.49155562 18.9108943,4.27537487 18.7499899,4.11634535 L16.577095,1.94279916 C16.4108785,1.7764865 16.1939403,1.69397281 15.9770877,1.69397281 C15.7601495,1.69397281 15.543297,1.7764865 15.37828,1.94279916 L14.1409097,3.17759138 C13.6939245,2.94076078 13.2242344,2.74248799 12.7320109,2.59279803 L12.7320109,0.848271663 C12.7320109,0.379922884 12.3540826,0 11.8843925,0 L8.80955903,0 C8.34252499,0 7.96056981,0.379922884 7.96056981,0.848271663 L7.96056981,2.59271235 C7.46963145,2.74240231 6.9998557,2.9406751 6.5514996,3.17750569 L5.31832755,1.94408442 C5.15193972,1.77777176 4.93508719,1.69525807 4.71814898,1.69525807 C4.50129645,1.69525807 4.28315874,1.77777176 4.11814177,1.94339895 L1.94267651,4.11694514 C1.78434246,4.27666013 1.69523672,4.4921554 1.69523672,4.71776139 C1.69523672,4.9432817 1.78434246,5.15886266 1.94267651,5.31789217 L3.17610559,6.55199892 C2.94048945,6.99909806 2.74231486,7.46950326 2.5920346,7.96047261 L0.848989218,7.96047261 C0.379299149,7.96047261 0,8.34099529 0,8.81002954 L0,11.8851428 C0,12.3528062 0.379299149,12.7341 0.848989218,12.7341 L2.58929288,12.7341 Z" id="Path"></path>
            <path d="M28.8573458,30 C30.1275885,29.1828081 31,27.6186438 31,25.8034546 C31,23.1545514 29.1619415,21 26.9037234,21 C26.1095816,21 25.373702,21.2784366 24.7449031,21.7390869 C24.36836,23.4971994 23.7754947,25.1788966 23,26.6396095 C25.1984354,27.1243859 27.2156019,28.2986826 28.8573458,30 Z" id="Path"></path>
            <path d="M37.9985872,23.7368408 C37.9985872,23.2182085 37.5997647,22.7983173 37.1106068,22.7983173 L35.2858631,22.7983173 C35.1282954,22.2551095 34.9192855,21.7344585 34.6714655,21.2404017 L35.9632547,19.8761065 C36.1311274,19.7002157 36.2239561,19.4617449 36.2239561,19.213005 C36.2239561,18.9641773 36.1310443,18.7256188 35.9632547,18.5492013 L33.6892436,16.1468516 C33.5163845,15.9634125 33.287928,15.8714296 33.0608842,15.8714296 C32.8336743,15.8714296 32.6065474,15.9634125 32.4336883,16.1468516 L31.1392398,17.5118489 C30.6719385,17.2501191 30.1802874,17.0307822 29.6640371,16.8650726 L29.6640371,14.9378213 C29.6640371,14.4198912 29.2677909,14 28.7773864,14 L25.5600468,14 C25.3444716,14 25.1547421,14.0912807 25,14.2262708 C25.2709234,15.2702937 25.4193495,16.4023497 25.4193495,17.6099757 C25.4193495,18.3766457 25.3626716,19.1550769 25.2567955,19.9291195 C25.8555693,19.6960027 26.4930703,19.5496025 27.1681349,19.5496025 C30.2422009,19.5496025 32.7433388,22.1905108 32.7433388,25.4363292 C32.7433388,27.5109462 31.7174035,29.3291873 30.1777112,30.3780375 C31.297971,31.6756276 32.1884445,33.2151115 32.767938,34.9399654 C32.8633429,34.9747223 32.9627369,35 33.0621308,35 C33.2892577,35 33.5164676,34.9087193 33.6906564,34.7252802 L35.9659971,32.3229305 C36.1325402,32.1470396 36.2241223,31.9085688 36.2241223,31.659829 C36.2241223,31.4110891 36.1325402,31.1726183 35.9659971,30.9960253 L34.6715486,29.6310279 C34.9193687,29.1376733 35.1283786,28.6168468 35.2859463,28.0731123 L37.1106899,28.0731123 C37.3455456,28.0731123 37.5740021,27.9749856 37.7392155,27.7976904 C37.9057586,27.6225017 38,27.3834165 38,27.1345889 L37.9985872,23.7368408 Z" id="Path"></path>
            <path d="M31.1099626,36.0709454 C29.7066738,32.101634 25.9986339,29.3715948 21.7181043,29 C20.2847245,30.4592387 18.5100315,31.3850159 16.5002738,31.3850159 C14.4920374,31.3850159 12.7159921,30.45932 11.2839647,29 C7.00089927,29.3715948 3.29269037,32.101634 1.88940154,36.0715954 L1.11371297,38.2666292 C0.89183409,38.8982509 0.998082377,39.5942293 1.40245135,40.1361417 C1.80673581,40.6782166 2.4578341,41 3.15085693,41 L29.8484227,41 C30.5427979,41 31.1938962,40.6782166 31.5982652,40.1361417 C32.0011972,39.5942293 32.1088825,38.8982509 31.8856512,38.2666292 L31.1099626,36.0709454 Z" id="Path"></path>
            <path d="M9,17.1471354 C9,22.3823942 12.1347863,28 15.9993201,28 C19.8653837,28 23,22.3823942 23,17.1471354 C23.000085,6.29504843 9,6.27353331 9,17.1471354 Z" id="Path"></path>
        </g>
    </g>
</svg>