<?xml version="1.0" encoding="UTF-8"?>
<svg width="40px" height="40px" viewBox="0 0 40 40" version="1.1" xmlns="http://www.w3.org/2000/svg" xmlns:xlink="http://www.w3.org/1999/xlink">
    <!-- Generator: Sketch 53.2 (72643) - https://sketchapp.com -->
    <title>crypto-birji</title>
    <desc>Created with Sketch.</desc>
    <g id="Design" stroke="none" stroke-width="1" fill="none" fill-rule="evenodd">
        <g id="crypto-birji" fill="#FFFFFF" fill-rule="nonzero">
            <path d="M19,23 L19,24.3333333 L17,24.3333333 L17,33.6666667 L19,33.6666667 L19,35 L20.3333333,35 L20.3333333,33.6666667 C21.8040365,33.6666667 23,32.4707032 23,31 C23,30.2047526 22.6500651,29.4886068 22.0953776,29 C22.6500651,28.5113933 23,27.7952474 23,27 C23,25.5292968 21.8040365,24.3333333 20.3333333,24.3333333 L20.3333333,23 L19,23 Z M20.3333333,32.3333333 L18.3333333,32.3333333 L18.3333333,29.6666667 L20.3333333,29.6666667 C21.0686849,29.6666667 21.6666667,30.2646484 21.6666667,31 C21.6666667,31.7353516 21.0686849,32.3333333 20.3333333,32.3333333 Z M21.6666667,27 C21.6666667,27.7353516 21.0686849,28.3333333 20.3333333,28.3333333 L18.3333333,28.3333333 L18.3333333,25.6666667 L20.3333333,25.6666667 C21.0686849,25.6666667 21.6666667,26.2646484 21.6666667,27 Z" id="Shape"></path>
            <path d="M40,16.6229508 C40,10.9827981 35.3688886,6.39344262 29.6774194,6.39344262 C28.3083418,6.39344262 27.0032132,6.6644147 25.8064516,7.1467325 L25.8064516,5.1147541 L24.516129,5.1147541 L24.516129,7.77764789 C24.0637601,8.03769373 23.6315524,8.3273966 23.2258065,8.65019049 L23.2258065,3.83606557 L21.9354839,3.83606557 L21.9354839,9.8798668 C21.4443674,10.4327373 21.0077495,11.0330591 20.6451613,11.6820809 L20.6451613,0 L19.3548387,0 L19.3548387,11.6814565 C18.9922505,11.0324347 18.5556326,10.4321129 18.0645161,9.87924248 L18.0645161,3.83606557 L16.7741935,3.83606557 L16.7741935,8.65019049 C16.3684476,8.3273966 15.9362399,8.03769373 15.483871,7.77764789 L15.483871,5.1147541 L14.1935484,5.1147541 L14.1935484,7.1467325 C12.9967868,6.6644147 11.6916582,6.39344262 10.3225806,6.39344262 C4.63111137,6.39344262 0,10.9827981 0,16.6229508 C0,18.8388031 0.72265629,20.8867027 1.93548387,22.5637327 L1.93548387,31.3278689 L3.22580645,31.3278689 L3.22580645,24.0322266 C3.62840226,24.4109007 4.0561996,24.7630395 4.51612903,25.0745949 L4.51612903,33.8852459 L5.80645161,33.8852459 L5.80645161,25.807281 C6.22259323,26.0092614 6.65165073,26.1881404 7.09677419,26.3339284 L7.09677419,37.0819672 L8.38709677,37.0819672 L8.38709677,26.6657754 C8.86970766,26.7572442 9.36586444,26.8078173 9.86895161,26.8293577 C9.74640879,27.4587123 9.67741935,28.1061732 9.67741935,28.7704918 C9.67741935,34.4106446 14.3085307,39 20,39 C25.6914693,39 30.3225806,34.4106446 30.3225806,28.7704918 C30.3225806,28.1061732 30.2535912,27.4587123 30.1310484,26.8293577 C30.6347656,26.8078173 31.1302923,26.7566198 31.6129032,26.6657754 L31.6129032,37.0819672 L32.9032258,37.0819672 L32.9032258,26.3339284 C33.3483493,26.1881404 33.7774068,26.0092614 34.1935484,25.8079054 L34.1935484,33.8852459 L35.483871,33.8852459 L35.483871,25.0736585 C35.9438004,24.7624151 36.3715977,24.4109007 36.7741935,24.0316022 L36.7741935,31.3278689 L38.0645161,31.3278689 L38.0645161,22.5637327 C39.2773437,20.8867027 40,18.8388031 40,16.6229508 Z M10.3225806,7.67213115 C14.8639113,7.67213115 18.6227319,11.0140161 19.2515121,15.3442623 L13.7947329,15.3442623 L12.9482737,17.022541 L10.9469506,12.395724 L8.52917089,18.3861424 L6.65480089,10.9550141 L4.11731355,15.9836066 L1.32308468,15.9836066 C1.65606097,11.3464875 5.56010581,7.67213115 10.3225806,7.67213115 Z M1.32308468,17.2622951 L4.9155746,17.2622951 L6.24905492,14.6187564 L8.24565274,22.5318904 L10.9891633,15.7354236 L12.858808,20.0594262 L14.5923639,16.6229508 L19.3548387,16.6229508 C19.3548387,17.2853963 19.2773437,17.9431592 19.1327495,18.5843766 C14.9521169,18.9315206 11.4761845,21.7536261 10.203188,25.5681513 C5.49489669,25.5060275 1.65354081,21.8597672 1.32308468,17.2622951 Z M20,37.7213115 C15.0192162,37.7213115 10.9677419,33.7063669 10.9677419,28.7704918 C10.9677419,23.8346167 15.0192162,19.8196721 20,19.8196721 C24.9807838,19.8196721 29.0322581,23.8346167 29.0322581,28.7704918 C29.0322581,33.7063669 24.9807838,37.7213115 20,37.7213115 Z M29.796812,25.5681513 C28.5238155,21.7542504 25.0478831,18.9315206 20.8672505,18.5850009 C20.7226563,17.9437836 20.6451613,17.2866451 20.6451613,16.6229508 C20.6451613,11.6870757 24.6966356,7.67213115 29.6774194,7.67213115 C34.6582031,7.67213115 38.7096774,11.6870757 38.7096774,16.6229508 C38.7096774,21.5185546 34.7218372,25.5035301 29.796812,25.5681513 Z" id="Shape"></path>
            <path d="M20.0724548,21 C18.2228232,21 16.4219002,21.6519193 15,22.836406 L15.8464306,23.8512196 C17.0309174,22.8651151 18.5312027,22.3212575 20.0724548,22.3212575 C23.7152676,22.3212575 26.6787425,25.2847324 26.6787425,28.9275452 C26.6787425,30.4687973 26.1348849,31.9697278 25.1487804,33.1535694 L26.1629488,34 C27.3480807,32.578745 28,30.7778219 28,28.9275452 C28,24.5560408 24.4439592,21 20.0724548,21 Z" id="Path"></path>
            <path d="M19.9275452,35.6787425 C16.2847324,35.6787425 13.3212575,32.7152676 13.3212575,29.0724548 C13.3212575,27.5312027 13.8651151,26.0302722 14.8512196,24.8464306 L13.8370512,24 C12.6519193,25.421255 12,27.2221781 12,29.0724548 C12,33.4439592 15.5560408,37 19.9275452,37 C21.7771768,37 23.5780998,36.3480807 25,35.163594 L24.1535694,34.1487804 C22.9690826,35.1348849 21.4687973,35.6787425 19.9275452,35.6787425 Z" id="Path"></path>
            <path d="M25,17 L30,24 L35,17 L30,10 L25,17 Z M29.3057627,17.3964294 L26.9169492,16.6532429 L29.3057627,13.3087457 L29.3057627,17.3964294 Z M29.3057627,18.763209 L29.3057627,20.6912543 L27.5349153,18.2117515 L29.3057627,18.763209 Z M30.6942373,18.763209 L32.4650847,18.2123842 L30.6942373,20.6912543 L30.6942373,18.763209 Z M30.6942373,17.3964294 L30.6942373,13.3077966 L33.0830508,16.6526102 L30.6942373,17.3964294 Z" id="Shape"></path>
            <polygon id="Path" points="2 33 3 33 3 34 2 34"></polygon>
            <polygon id="Path" points="5 36 6 36 6 37 5 37"></polygon>
            <polygon id="Path" points="7 39 8 39 8 40 7 40"></polygon>
            <polygon id="Path" points="37 33 38 33 38 34 37 34"></polygon>
            <polygon id="Path" points="34 36 35 36 35 37 34 37"></polygon>
            <polygon id="Path" points="32 39 33 39 33 40 32 40"></polygon>
            <polygon id="Path" points="17 2 18 2 18 3 17 3"></polygon>
            <polygon id="Path" points="22 2 23 2 23 3 22 3"></polygon>
        </g>
    </g>
</svg>