<?xml version="1.0" encoding="UTF-8"?>
<svg width="39px" height="39px" viewBox="0 0 39 39" version="1.1" xmlns="http://www.w3.org/2000/svg" xmlns:xlink="http://www.w3.org/1999/xlink">
    <!-- Generator: Sketch 53 (72520) - https://sketchapp.com -->
    <title>data</title>
    <desc>Created with Sketch.</desc>
    <g id="Design" stroke="none" stroke-width="1" fill="none" fill-rule="evenodd">
        <g id="Index-moonly" transform="translate(-653.000000, -1691.000000)" fill="#FBFAFE" fill-rule="nonzero">
            <g id="Group-7" transform="translate(636.000000, 1674.000000)">
                <g id="data" transform="translate(17.000000, 17.000000)">
                    <g id="Group-15">
                        <polygon id="Path" points="24.2068966 2.68965517 34.9655172 2.68965517 34.9655172 4.03448276 24.2068966 4.03448276"></polygon>
                        <polygon id="Path" points="24.2068966 5.37931034 32.2758621 5.37931034 32.2758621 6.72413793 24.2068966 6.72413793"></polygon>
                        <polygon id="Path" points="33.6206897 5.37931034 34.9655172 5.37931034 34.9655172 6.72413793 33.6206897 6.72413793"></polygon>
                        <path d="M12.1034483,26.8624057 L12.1034483,6.75828394 C6.85514044,7.10663892 2.68965517,11.4753587 2.68965517,16.8103448 C2.68965517,22.145331 6.85514044,26.5140507 12.1034483,26.8624057 Z M5.37931034,13.4482759 L10.7586207,13.4482759 L10.7586207,14.7931034 L5.37931034,14.7931034 L5.37931034,13.4482759 Z M5.37931034,16.137931 L10.7586207,16.137931 L10.7586207,17.4827586 L5.37931034,17.4827586 L5.37931034,16.137931 Z M10.7586207,18.8275862 L10.7586207,20.1724138 L5.37931034,20.1724138 L5.37931034,18.8275862 L10.7586207,18.8275862 Z" id="Shape"></path>
                        <path d="M17.6354307,7.99509195 L23.1766063,1.34482759 L34.9655172,1.34482759 L34.9655172,-4.79616347e-14 L22.5475316,-4.79616347e-14 L16.3694016,7.41329642 C15.4494292,7.06231483 14.4729846,6.82624766 13.4482759,6.75828394 L13.4482759,15.6457688 L21.1514851,11.1982506 C20.2564655,9.86622773 19.0455954,8.7715854 17.6354307,7.99509195 Z" id="Path"></path>
                        <polygon id="Path" points="26.8965517 36.3103448 12.1034483 36.3103448 12.1034483 37.6551724 9.4137931 37.6551724 9.4137931 39 29.5862069 39 29.5862069 37.6551724 26.8965517 37.6551724"></polygon>
                        <path d="M22.862069,16.8103448 C22.862069,15.2146754 22.479568,13.7099525 21.817004,12.3670949 L14.1206897,16.8103448 L21.8163473,21.2535947 C22.479568,19.9107372 22.862069,18.4060143 22.862069,16.8103448 Z" id="Path"></path>
                        <path d="M16.2630236,24.5976058 L17.357666,23.8161873 L18.351512,25.2079657 C19.4569891,24.4718565 20.4104509,23.5249613 21.1514851,22.4230957 L13.4482759,17.9749209 L13.4482759,26.8624057 C14.7776721,26.7740858 16.034508,26.4286857 17.1741312,25.8731563 L16.2630236,24.5976058 Z" id="Path"></path>
                        <polygon id="Path" points="22.862069 25.5517241 24.2068966 25.5517241 24.2068966 28.2413793 22.862069 28.2413793"></polygon>
                        <polygon id="Path" points="28.2413793 22.862069 29.5862069 22.862069 29.5862069 28.2413793 28.2413793 28.2413793"></polygon>
                        <path d="M36.9827586,9.4137931 L21.4755438,9.4137931 C23.1746363,11.4093649 24.2068966,13.9896871 24.2068966,16.8103448 C24.2068966,20.7614325 22.1909685,24.2499074 19.1342437,26.303593 L20.5187988,28.2413793 L21.5172414,28.2413793 L21.5172414,24.2068966 L25.5517241,24.2068966 L25.5517241,28.2413793 L26.8965517,28.2413793 L26.8965517,21.5172414 L30.9310345,21.5172414 L30.9310345,28.2413793 L32.2758621,28.2413793 L32.2758621,17.4827586 L36.3103448,17.4827586 L36.3103448,28.2413793 L37.6551724,28.2413793 L37.6551724,29.5862069 L19.8260287,29.5862069 L17.9663843,26.9819168 C16.4068309,27.7813931 14.6456846,28.2413793 12.7758621,28.2413793 C6.47263937,28.2413793 1.34482759,23.1135675 1.34482759,16.8103448 C1.34482759,13.9896871 2.37708782,11.4093649 4.07618031,9.4137931 L2.01724138,9.4137931 C0.905197649,9.4137931 0,10.3189908 0,11.4310345 L0,29.5862069 L8.27285659,29.5862069 L10.290098,30.9310345 L39,30.9310345 L39,11.4310345 C39,10.3189908 38.0948024,9.4137931 36.9827586,9.4137931 Z" id="Path"></path>
                        <polygon id="Path" points="33.6206897 18.8275862 34.9655172 18.8275862 34.9655172 28.2413793 33.6206897 28.2413793"></polygon>
                        <path d="M7.86507444,30.9310345 L0,30.9310345 L0,32.9482759 C0,34.0603196 0.905197649,34.9655172 2.01724138,34.9655172 L36.9827586,34.9655172 C38.0948024,34.9655172 39,34.0603196 39,32.9482759 L39,32.2758621 L9.88231582,32.2758621 L7.86507444,30.9310345 Z M2.68965517,33.6206897 L1.34482759,33.6206897 L1.34482759,32.2758621 L2.68965517,32.2758621 L2.68965517,33.6206897 Z M5.37931034,33.6206897 L4.03448276,33.6206897 L4.03448276,32.2758621 L5.37931034,32.2758621 L5.37931034,33.6206897 Z M8.06896552,33.6206897 L6.72413793,33.6206897 L6.72413793,32.2758621 L8.06896552,32.2758621 L8.06896552,33.6206897 Z" id="Shape"></path>
                    </g>
                </g>
            </g>
        </g>
    </g>
</svg>