<?xml version="1.0" encoding="UTF-8"?>
<svg width="41px" height="36px" viewBox="0 0 41 36" version="1.1" xmlns="http://www.w3.org/2000/svg" xmlns:xlink="http://www.w3.org/1999/xlink">
    <!-- Generator: Sketch 53.2 (72643) - https://sketchapp.com -->
    <title>verstka</title>
    <desc>Created with Sketch.</desc>
    <g id="Design" stroke="none" stroke-width="1" fill="none" fill-rule="evenodd">
        <g id="verstka" fill="#FFFFFF" fill-rule="nonzero">
            <path d="M39.0145086,0 L1.98549138,0 C0.888805218,0 0,0.904647508 0,2.02065559 L0,25.662326 C0,26.7783341 0.888805218,27.6829816 1.98549138,27.6829816 L15.8340952,27.6829816 L15.8340952,32.2617872 L10.4451738,32.2617872 C9.43247392,32.2617872 8.60859427,33.1002582 8.60859427,34.1308936 C8.60859427,35.161529 9.43247392,36 10.4451738,36 L30.5548262,36 C31.5675261,36 32.3914057,35.161529 32.3914057,34.1308936 C32.3914057,33.1002582 31.5675261,32.2617872 30.5548262,32.2617872 L25.1659048,32.2617872 L25.1659048,27.6829816 L39.0145086,27.6829816 C40.1111948,27.6829816 41,26.7783341 41,25.662326 L41,2.02065559 C41,0.904647508 40.1111948,0 39.0145086,0 Z M38.0217629,24.6519982 L2.97823708,24.6519982 L2.97823708,3.03098339 L38.0217629,3.03098339 L38.0217629,24.6519982 Z" id="Shape"></path>
            <path d="M9.72862184,15.7369097 L16.2097807,18.8781454 C16.3773473,18.9589892 16.5557014,19 16.7401171,19 C16.9803199,19 17.2143583,18.9289003 17.4178834,18.7939822 C17.7823997,18.5512367 18,18.137595 18,17.6873327 L18,17.6528536 C18,17.1441268 17.7138731,16.6768391 17.2709672,16.4622551 L13.2174176,14.4995181 L17.27107,12.5363529 C17.7138731,12.3217689 18,11.8543741 18,11.3458614 L18,11.3117036 C18,10.8607988 17.782297,10.4471571 17.4179861,10.2051612 C17.2164131,10.0708855 16.9816555,10 16.7392952,10 C16.5566261,10 16.3732378,10.0418674 16.2091643,10.1213192 L9.72851911,13.2621266 C9.28592142,13.4768176 9.00000003,13.9441054 9.00000003,14.452511 L9.00000003,14.5465253 C8.99989729,15.0542885 9.28571594,15.5214691 9.72862184,15.7369097 Z" id="Path"></path>
            <path d="M17.2484656,21.4750522 C17.4911015,21.8037578 17.8813646,22 18.2925065,22 L18.3257226,22 C18.8900804,22 19.3846316,21.64238 19.5565119,21.1110647 L23.9386152,7.67056367 C24.0643093,7.28256785 23.9945027,6.85448852 23.7518668,6.52505219 C23.5092309,6.19634656 23.1189678,6 22.7078259,6 L22.6747153,6 C22.1101466,6 21.6151736,6.35762004 21.4431878,6.88893528 L17.0605573,20.3305846 C16.9359177,20.7188935 17.0061461,21.1465553 17.2484656,21.4750522 Z" id="Path"></path>
            <path d="M23.0001027,11.3459525 C23.0001027,11.8541379 23.2859149,12.3214201 23.7290161,12.5368581 L27.7824732,14.4995717 L23.7290161,16.4622853 C23.2861203,16.6768667 23,17.1441489 23,17.6528697 L23,17.6873483 C23,18.1376053 23.2174926,18.5512421 23.5824116,18.7940918 C23.7852128,18.9287941 24.0194514,19 24.2599569,19 C24.4440601,19 24.6223075,18.9589897 24.7910003,18.8777186 L31.271703,15.7366273 C31.7141879,15.5215105 32,15.0543354 32,14.5464712 L32,14.452458 C32,13.9440584 31.7140851,13.4767763 31.2712921,13.2620878 L24.7906921,10.1211036 C24.6272388,10.041974 24.4441629,10 24.2613952,10 C24.0191432,10 23.7842882,10.0708847 23.5829252,10.2047304 C23.2178008,10.4471518 23.0001027,10.8607886 23.0001027,11.311688 L23.0001027,11.3459525 L23.0001027,11.3459525 Z" id="Path"></path>
        </g>
    </g>
</svg>