<?xml version="1.0" encoding="UTF-8"?>
<svg width="38px" height="25px" viewBox="0 0 38 25" version="1.1" xmlns="http://www.w3.org/2000/svg" xmlns:xlink="http://www.w3.org/1999/xlink">
    <!-- Generator: Sketch 53 (72520) - https://sketchapp.com -->
    <title>gamepad-controller</title>
    <desc>Created with Sketch.</desc>
    <g id="Design" stroke="none" stroke-width="1" fill="none" fill-rule="evenodd">
        <g id="Index-moonly" transform="translate(-904.000000, -1700.000000)" fill="#FCFAFE" fill-rule="nonzero">
            <g id="Group-8" transform="translate(886.000000, 1674.000000)">
                <g id="gamepad-controller" transform="translate(18.000000, 26.000000)">
                    <g id="Shape-2" transform="translate(-0.000306, 0.036255)">
                        <path d="M34.3628617,4.36235648 C29.3785283,-3.71889352 21.8700098,1.9033287 21.8700098,1.9033287 C21.3830469,2.26652314 20.4851209,2.56513425 19.8750098,2.56652314 L17.8638246,2.56791203 C17.2537135,2.56860648 16.3557876,2.26999537 15.8695283,1.90680092 C15.8695283,1.90680092 8.36030611,-3.71681019 3.37526907,4.36443981 C-1.60836056,12.442912 0.400009813,21.2408287 0.400009813,21.2408287 C0.751861665,23.3949954 1.91156537,24.8324954 4.10008389,24.6519398 C6.28226907,24.4720787 11.0188987,18.8505509 11.0188987,18.8505509 C11.410158,18.3873565 12.2299728,18.0088843 12.8386765,18.0088843 L24.8959357,18.0068009 C25.5053431,18.0068009 26.3244543,18.3852731 26.7150098,18.8484676 C26.7150098,18.8484676 31.4523431,24.4699954 33.6380469,24.6498565 C35.8237506,24.830412 36.9862691,23.3915231 37.3360098,21.2387454 C37.3353061,21.2387454 39.347195,12.4422176 34.3628617,4.36235648 Z M14.3375654,10.9401343 L11.752158,10.9401343 L11.752158,13.399162 C11.752158,13.399162 11.2046765,13.811662 10.3574172,13.8012454 C9.51156537,13.7887454 9.12875055,13.3512454 9.12875055,13.3512454 L9.12875055,10.9408287 L6.6868987,10.9408287 C6.6868987,10.9408287 6.382195,10.6324954 6.30056537,9.82068981 C6.22034315,9.00888425 6.63763944,8.35263425 6.63763944,8.35263425 L9.22375055,8.35263425 L9.22375055,5.80124537 C9.22375055,5.80124537 9.75575055,5.51999537 10.5206765,5.54152314 C11.2863061,5.56513425 11.847158,5.84916203 11.847158,5.84916203 L11.8366024,8.35193981 L14.2784543,8.35193981 C14.2784543,8.35193981 14.7048987,8.89221759 14.7400839,9.54499537 C14.7752691,10.1984676 14.3375654,10.9401343 14.3375654,10.9401343 Z M26.1963802,13.742912 C25.0641209,13.742912 24.1514172,12.8394398 24.1514172,11.7234676 C24.1514172,10.605412 25.0641209,9.70402314 26.1963802,9.70402314 C27.3237135,9.70402314 28.2434543,10.605412 28.2434543,11.7234676 C28.2434543,12.8401343 27.3237135,13.742912 26.1963802,13.742912 Z M26.1963802,8.18666203 C25.0641209,8.18666203 24.1514172,7.28388425 24.1514172,6.16791203 C24.1514172,5.04985648 25.0641209,4.14846759 26.1963802,4.14846759 C27.3237135,4.14846759 28.2434543,5.04985648 28.2434543,6.16791203 C28.2434543,7.2845787 27.3237135,8.18666203 26.1963802,8.18666203 Z M31.2926024,11.1693009 C30.1603431,11.1693009 29.2476394,10.2665231 29.2476394,9.14985648 C29.2476394,8.03249537 30.1603431,7.13041203 31.2926024,7.13041203 C32.4199357,7.13041203 33.3396765,8.03249537 33.3396765,9.14985648 C33.3396765,10.2665231 32.4199357,11.1693009 31.2926024,11.1693009 Z" id="Shape"></path>
                    </g>
                </g>
            </g>
        </g>
    </g>
</svg>