<?xml version="1.0" encoding="UTF-8"?>
<svg width="32px" height="32px" viewBox="0 0 32 32" version="1.1" xmlns="http://www.w3.org/2000/svg" xmlns:xlink="http://www.w3.org/1999/xlink">
    <!-- Generator: Sketch 53.2 (72643) - https://sketchapp.com -->
    <title>servernoe oborudovanie</title>
    <desc>Created with Sketch.</desc>
    <g id="Design" stroke="none" stroke-width="1" fill="none" fill-rule="evenodd">
        <g id="servernoe-oborudovanie" fill="#FFFFFF" fill-rule="nonzero">
            <path d="M23.3336842,23.0022747 C23.1826316,23.006824 23.0315789,23.010236 22.8805263,23.0130793 C22.8515789,23.013648 22.8226316,23.0142167 22.7931579,23.0147853 C22.6163158,23.0176287 22.4394737,23.018766 22.2631579,23.018766 C22.0863158,23.018766 21.9089474,23.01706 21.7315789,23.0147853 C21.7078947,23.0142167 21.6836842,23.013648 21.66,23.0130793 C21.5031579,23.010236 21.3468421,23.006824 21.19,23.001706 C21.1789474,23.001706 21.1678947,23.0011373 21.1573684,23.0005687 C17.5521053,22.885698 13.9794737,22.2072789 12,21 L12,23.0193347 L12,23.2325846 L12,23.4458345 L12,24.6349161 C13.1252632,25.860961 17.0536842,27 22.2631579,27 C26.8463158,27 30.4352632,26.1179983 32,25.071652 L32,23.4458345 L32,23.2325846 L32,23.0193347 L32,21.2900199 C29.9542105,22.3147569 26.6826316,22.8936594 23.3826316,23.0005687 C23.3663158,23.0011373 23.35,23.001706 23.3336842,23.0022747 Z" id="Path"></path>
            <path d="M12,16 L12,18.0208432 L12,18.2340123 L12,18.4471814 L12,19.6261487 C12.0273684,19.6557082 12.0515789,19.6858361 12.0826316,19.7153955 C12.1057895,19.7381336 12.1284211,19.7608716 12.1536842,19.7836097 C13.4736842,20.9483657 17.3673684,22 22.2631579,22 C26.7621053,22 30.4131579,21.1115111 32,20.0644244 L32,18.4471814 L32,18.2340123 L32,18.0208432 L32,16.2870677 C29.7205263,17.4239697 25.92,18.0208432 22.2631579,18.0208432 C18.3089474,18.0208432 14.1847368,17.3233539 12,16 Z" id="Path"></path>
            <path d="M12,26 L12,28.2835147 C12,28.3631537 12.0189474,28.4396071 12.0526316,28.5075657 C12.6036842,30.801168 17.4273684,32 22,32 C26.5642105,32 31.3768421,30.8059464 31.9447368,28.5208389 C31.98,28.4496947 32,28.3689939 32,28.2835147 L32,26.2707725 C29.7231579,27.335811 25.9263158,27.8853199 22.2631579,27.8853199 C18.3005263,27.8853199 14.1821053,27.2428989 12,26 Z" id="Path"></path>
            <path d="M22,10 C17.4263158,10 12.5842105,11.151 12.0505263,13.292 C12.0194737,13.356 12,13.425 12,13.5 L12,13.6875 L12,14.912 C13.1331579,15.9895 17.1468421,17 22.2631579,17 C26.7621053,17 30.4131579,16.2185 32,15.2975 L32,13.6875 L32,13.5 C32,13.4275 31.9810526,13.36 31.9505263,13.298 C31.4242105,11.153 26.5778947,10 22,10 Z" id="Path"></path>
            <path d="M29.5424,0 L2.4576,0 C1.1024,0 0,1.08789474 0,2.42526316 L0,8.62684211 C0,9.13947368 0.167466667,9.61052632 0.445333333,10 L13.2538667,10 C15.3733333,9.05 18.5525333,8.55263158 21.6234667,8.55263158 C24.6944,8.55263158 27.8730667,9.05052632 29.9925333,10 L31.5541333,10 C31.8325333,9.61052632 32,9.13947368 32,8.62736842 L32,2.42526316 C32,1.08789474 30.8976,0 29.5424,0 Z M5.6,7.89473684 C4.2768,7.89473684 3.2,6.83210526 3.2,5.52631579 C3.2,4.22052632 4.2768,3.15789474 5.6,3.15789474 C6.9232,3.15789474 8,4.22052632 8,5.52631579 C8,6.83210526 6.9232,7.89473684 5.6,7.89473684 Z M18.1333333,5.26315789 C17.8389333,5.26315789 17.6,5.02736842 17.6,4.73684211 C17.6,4.44631579 17.8389333,4.21052632 18.1333333,4.21052632 C18.4277333,4.21052632 18.6666667,4.44631579 18.6666667,4.73684211 C18.6666667,5.02736842 18.4277333,5.26315789 18.1333333,5.26315789 Z M19.2,6.84210526 C18.9056,6.84210526 18.6666667,6.60631579 18.6666667,6.31578947 C18.6666667,6.02526316 18.9056,5.78947368 19.2,5.78947368 C19.4944,5.78947368 19.7333333,6.02526316 19.7333333,6.31578947 C19.7333333,6.60631579 19.4944,6.84210526 19.2,6.84210526 Z M20.2666667,5.26315789 C19.9722667,5.26315789 19.7333333,5.02736842 19.7333333,4.73684211 C19.7333333,4.44631579 19.9722667,4.21052632 20.2666667,4.21052632 C20.5610667,4.21052632 20.8,4.44631579 20.8,4.73684211 C20.8,5.02736842 20.5610667,5.26315789 20.2666667,5.26315789 Z M21.3333333,6.84210526 C21.0389333,6.84210526 20.8,6.60631579 20.8,6.31578947 C20.8,6.02526316 21.0389333,5.78947368 21.3333333,5.78947368 C21.6277333,5.78947368 21.8666667,6.02526316 21.8666667,6.31578947 C21.8666667,6.60631579 21.6277333,6.84210526 21.3333333,6.84210526 Z M22.4,5.26315789 C22.1056,5.26315789 21.8666667,5.02736842 21.8666667,4.73684211 C21.8666667,4.44631579 22.1056,4.21052632 22.4,4.21052632 C22.6944,4.21052632 22.9333333,4.44631579 22.9333333,4.73684211 C22.9333333,5.02736842 22.6944,5.26315789 22.4,5.26315789 Z M23.4666667,6.84210526 C23.1722667,6.84210526 22.9333333,6.60631579 22.9333333,6.31578947 C22.9333333,6.02526316 23.1722667,5.78947368 23.4666667,5.78947368 C23.7610667,5.78947368 24,6.02526316 24,6.31578947 C24,6.60631579 23.7610667,6.84210526 23.4666667,6.84210526 Z M24.5333333,5.26315789 C24.2389333,5.26315789 24,5.02736842 24,4.73684211 C24,4.44631579 24.2389333,4.21052632 24.5333333,4.21052632 C24.8277333,4.21052632 25.0666667,4.44631579 25.0666667,4.73684211 C25.0666667,5.02736842 24.8277333,5.26315789 24.5333333,5.26315789 Z M25.6,6.84210526 C25.3056,6.84210526 25.0666667,6.60631579 25.0666667,6.31578947 C25.0666667,6.02526316 25.3056,5.78947368 25.6,5.78947368 C25.8944,5.78947368 26.1333333,6.02526316 26.1333333,6.31578947 C26.1333333,6.60631579 25.8944,6.84210526 25.6,6.84210526 Z M26.6666667,5.26315789 C26.3722667,5.26315789 26.1333333,5.02736842 26.1333333,4.73684211 C26.1333333,4.44631579 26.3722667,4.21052632 26.6666667,4.21052632 C26.9610667,4.21052632 27.2,4.44631579 27.2,4.73684211 C27.2,5.02736842 26.9610667,5.26315789 26.6666667,5.26315789 Z M27.7333333,6.84210526 C27.4389333,6.84210526 27.2,6.60631579 27.2,6.31578947 C27.2,6.02526316 27.4389333,5.78947368 27.7333333,5.78947368 C28.0277333,5.78947368 28.2666667,6.02526316 28.2666667,6.31578947 C28.2666667,6.60631579 28.0277333,6.84210526 27.7333333,6.84210526 Z" id="Shape"></path>
            <path d="M10.8437252,20 C10.8437252,19.9174118 10.8437252,18.4117647 10.8437252,18.4117647 L10.8437252,18.2132353 L10.8437252,18.0147059 L10.8437252,16.1326471 L10.8437252,14.7450588 L10.8437252,13.4485294 L10.8437252,13.25 C10.8437252,13.1705882 10.8637861,13.0975294 10.8957751,13.0297647 C11.0936731,12.2139412 11.8722526,11.5362941 13,11 L0.452725529,11 C0.170246486,11.3917647 0,11.8655882 0,12.3807059 L0,18.6187647 C0,19.1344118 0.170246486,19.6082353 0.452725529,20 L10.8437252,20 Z M5.69295575,13.1176471 C7.03811986,13.1176471 8.13279393,14.1865294 8.13279393,15.5 C8.13279393,16.8134706 7.03811986,17.8823529 5.69295575,17.8823529 C4.34779163,17.8823529 3.25311757,16.8134706 3.25311757,15.5 C3.25311757,14.1865294 4.34779163,13.1176471 5.69295575,13.1176471 Z" id="Shape"></path>
            <path d="M11.6851912,29.7205263 C10.9722907,29.2557895 10.4898226,28.7031579 10.3386013,28.0642105 C10.3056823,27.9968421 10.2871654,27.9210526 10.2871654,27.8421053 L10.2871654,25.5784211 L10.2871654,24.2063158 L10.2871654,23.1052632 L10.2871654,22.9078947 L10.2871654,22.7105263 L10.2871654,21 L0.429489157,21 C0.161508497,21.3894737 0,21.8605263 0,22.3726316 L0,28.5742105 C0,29.9142105 1.06112111,31 2.37016292,31 L11.3554876,31 C11.3611455,31 11.3662891,31 11.371947,31 C12.023639,30.9905263 12.2345259,30.0784211 11.6851912,29.7205263 Z M5.40076186,27.8421053 C4.12463898,27.8421053 3.08614963,26.7794737 3.08614963,25.4736842 C3.08614963,24.1678947 4.12463898,23.1052632 5.40076186,23.1052632 C6.67688473,23.1052632 7.71537408,24.1678947 7.71537408,25.4736842 C7.71537408,26.7794737 6.67688473,27.8421053 5.40076186,27.8421053 Z" id="Shape"></path>
        </g>
    </g>
</svg>