<?xml version="1.0" encoding="UTF-8"?>
<svg width="40px" height="40px" viewBox="0 0 40 40" version="1.1" xmlns="http://www.w3.org/2000/svg" xmlns:xlink="http://www.w3.org/1999/xlink">
    <!-- Generator: Sketch 53.2 (72643) - https://sketchapp.com -->
    <title>razrabotka-grafiki</title>
    <desc>Created with Sketch.</desc>
    <g id="Design" stroke="none" stroke-width="1" fill="none" fill-rule="evenodd">
        <g id="razrabotka-grafiki" fill="#FFFFFF" fill-rule="nonzero">
            <path d="M18.3875,19 C18.6217201,18.8282783 18.8282783,18.6217201 19,18.3875 L18,18 L18.3875,19 Z" id="Shape"></path>
            <path d="M22,19.5777262 L20.5104408,19 C20.1378468,19.6174214 19.6191358,20.133742 19,20.5034803 L19.5777262,22 L22,19.5777262 Z" id="Shape"></path>
            <path d="M2.85714286,32 L27.0928571,32 L25.6642857,30.5777778 L2.85714286,30.5777778 C2.06914152,30.5754348 1.43092486,29.9400547 1.42857143,29.1555556 L1.42857143,13.5111111 C1.43092486,12.726612 2.06914152,12.0912319 2.85714286,12.0888889 L32.1428571,12.0888889 C32.9308585,12.0912319 33.5690751,12.726612 33.5714286,13.5111111 L33.5714286,28.3875556 L35,29.8097778 L35,2.84444444 C35,1.27350116 33.7208136,0 32.1428571,0 L2.85714286,0 C1.27918643,-1.57898386e-16 3.17206579e-16,1.27350116 0,2.84444444 L0,29.1555556 C3.17206579e-16,30.7264988 1.27918643,32 2.85714286,32 Z M25.4542857,2.5856 C26.8501497,1.19984384 29.109136,1.19984384 30.505,2.5856 L32.525,4.59662222 C33.4339447,5.49338605 33.7914907,6.80576071 33.4622658,8.03686215 C33.1330409,9.26796352 32.1673673,10.2296172 30.9308631,10.5577271 C29.6943589,10.8858369 28.3760243,10.5302513 27.475,9.6256 L25.4542857,7.61457778 C24.0622609,6.22467395 24.0622609,3.97550383 25.4542857,2.5856 Z M15,3.55555556 L19.2857143,3.55555556 C19.6802034,3.55555556 20,3.87393084 20,4.26666667 C20,4.65940249 19.6802034,4.97777778 19.2857143,4.97777778 L15,4.97777778 C14.6055109,4.97777778 14.2857143,4.65940249 14.2857143,4.26666667 C14.2857143,3.87393084 14.6055109,3.55555556 15,3.55555556 Z M15,5.68888889 L19.2857143,5.68888889 C19.6802034,5.68888889 20,6.00726418 20,6.4 C20,6.79273582 19.6802034,7.11111111 19.2857143,7.11111111 L15,7.11111111 C14.6055109,7.11111111 14.2857143,6.79273582 14.2857143,6.4 C14.2857143,6.00726418 14.6055109,5.68888889 15,5.68888889 Z M2.475,4.59662222 L4.495,2.5856 C5.89148837,1.20744274 8.14426621,1.21235385 9.53467857,2.59658664 C10.925091,3.98081942 10.9300241,6.22358491 9.54571429,7.61386667 L7.525,9.6256 C6.12831677,11.003566 3.87553521,10.9983403 2.48531721,9.61390955 C1.09509922,8.22947876 1.09048734,5.98670816 2.475,4.59662222 Z" id="Shape"></path>
            <path d="M8.40719686,6.51270919 C9.20232696,5.70440158 9.1968879,4.40620928 8.39501272,3.60459149 C7.59313755,2.8029737 6.29483322,2.79784114 5.48664408,3.59309388 L5,4.07969643 L7.91986446,7 L8.40719686,6.51270919 Z" id="Shape"></path>
            <path d="M6.51478628,8.41451053 L7,7.9262307 L4.08871769,5 L3.60350397,5.48759017 C3.2171002,5.87563767 3,6.40209237 3,6.95105035 C3,7.50000833 3.2171002,8.02646303 3.60350397,8.41451053 C4.41846061,9.19516316 5.69982964,9.19516316 6.51478628,8.41451053 Z" id="Shape"></path>
            <path d="M28.4852137,8.41451053 C29.3001704,9.19516316 30.5815394,9.19516316 31.396496,8.41451053 C31.7828998,8.02646303 32,7.50000833 32,6.95105035 C32,6.40209237 31.7828998,5.87563767 31.396496,5.48759017 L30.9112823,5 L28,7.9262307 L28.4852137,8.41451053 Z" id="Shape"></path>
            <path d="M33.5507815,30.5817405 L32.2718105,29.3013611 L23.9795808,21 L21,23.982862 L26.4813044,29.4702023 L27.886767,30.8772127 L29.2922297,32.2842231 L30.6976923,33.6912334 L36.4038707,39.4036955 C37.238296,40.1987682 38.5490263,40.1987682 39.3834516,39.4036955 C40.2055161,38.5797008 40.2055161,37.2448282 39.3834516,36.4208335 L36.3617068,33.3957612 L35.0827358,32.1153818 L33.5507815,30.5817405 Z M23.4834525,24.4809436 C23.2824288,24.2797593 23.2222672,23.9771524 23.3310242,23.7142445 C23.4397812,23.4513366 23.696036,23.2799101 23.9802836,23.2799101 C24.2645311,23.2799101 24.5207859,23.4513366 24.6295429,23.7142445 C24.7383,23.9771524 24.6781384,24.2797593 24.4771146,24.4809436 C24.2026981,24.7555793 23.757869,24.7555793 23.4834525,24.4809436 Z M24.9739457,26.6765833 C24.689764,26.6765226 24.4335916,26.5051197 24.3248482,26.2422776 C24.2161048,25.9794354 24.2761982,25.6768984 24.4771146,25.4756999 L25.4707767,24.4809436 C25.7465137,24.2143347 26.1848113,24.2181476 26.4558786,24.4895133 C26.7269458,24.760879 26.7307544,25.1996594 26.4644388,25.4756999 L25.4707767,26.4704563 C25.3393286,26.6028602 25.1604144,26.6770888 24.9739457,26.6765833 Z M27.4588036,27.4659161 C27.2578406,27.6671612 26.9555666,27.7273891 26.6929479,27.6185123 C26.4303291,27.5096355 26.2590912,27.2530985 26.2590912,26.9685379 C26.2590912,26.6839773 26.4303291,26.4274404 26.6929479,26.3185636 C26.9555666,26.2096868 27.2578406,26.2699147 27.4588036,26.4711598 C27.7331372,26.7458785 27.7331372,27.1911974 27.4588036,27.4659161 Z" id="Shape"></path>
            <path d="M27.0882285,7 L30,4.0882285 L29.5148191,3.60304762 C28.7107556,2.79898413 27.4071111,2.79898413 26.6030476,3.60304762 C25.7989841,4.40711112 25.7989841,5.71075563 26.6030476,6.51481913 L27.0882285,7 Z" id="Shape"></path>
            <path d="M24.1487805,18.6945455 L24.1558537,18.7018182 L32,26.7672727 L32,13 L3,13 L3,29 L24.17,29 L19.155122,23.8436364 C19.1480488,23.8363636 19.1409756,23.8218182 19.1339024,23.8145455 C19.0881733,23.7622928 19.0500533,23.7034996 19.0207317,23.64 L18.9995122,23.5963636 C18.9956058,23.5963636 18.992439,23.5931075 18.992439,23.5890909 L16.8492683,17.8509091 L12.9095122,21.2181818 C12.566283,21.5191094 12.129848,21.6841662 11.6787805,21.6836364 C11.2680782,21.6815009 10.868894,21.5438356 10.54,21.2909091 C9.81692602,20.75925 9.55192006,19.7813402 9.90341463,18.9418182 C9.99978729,18.7276045 9.93795314,18.4732898 9.75487805,18.3309091 C9.57796369,18.1796227 9.32300092,18.1735961 9.1395122,18.3163636 L7.65414634,19.4072727 C7.45106033,19.586077 7.16727589,19.6318572 6.92069177,19.5255937 C6.67410765,19.4193303 6.50687086,19.1791861 6.48846023,18.9049296 C6.4700496,18.6306731 6.60361194,18.3691811 6.83365854,18.2290909 L8.31902439,17.1309091 C9.0186351,16.6209269 9.96195241,16.6482096 10.6325761,17.1978218 C11.3031999,17.747434 11.5394317,18.6868553 11.2119512,19.5018182 C11.1206262,19.7233717 11.1895359,19.980415 11.378365,20.1225653 C11.5671941,20.2647156 11.8263219,20.2546187 12.0041463,20.0981818 L16.7007317,16.0836364 L16.7431707,16.0618182 C16.7926515,16.0242006 16.8475398,15.9947553 16.9058537,15.9745455 C16.9275311,15.9605406 16.9514944,15.9506849 16.9765854,15.9454545 C17.0520758,15.9215003 17.1311298,15.9116476 17.21,15.9163636 C17.2241463,15.9236364 17.2382927,15.9236364 17.252439,15.9309091 C17.3056203,15.9360588 17.3579269,15.948282 17.4080488,15.9672727 L23.9082927,18.5345455 C23.9982291,18.5704563 24.0800696,18.624906 24.1487805,18.6945455 Z" id="Shape"></path>
        </g>
    </g>
</svg>