<?xml version="1.0" encoding="UTF-8"?>
<svg width="37px" height="36px" viewBox="0 0 37 36" version="1.1" xmlns="http://www.w3.org/2000/svg" xmlns:xlink="http://www.w3.org/1999/xlink">
    <!-- Generator: Sketch 53 (72520) - https://sketchapp.com -->
    <title>bank-building</title>
    <desc>Created with Sketch.</desc>
    <g id="Design" stroke="none" stroke-width="1" fill="none" fill-rule="evenodd">
        <g id="Index-moonly" transform="translate(-400.000000, -1692.000000)" fill="#FAFAFE" fill-rule="nonzero">
            <g id="Group-5" transform="translate(380.000000, 1674.000000)">
                <g id="bank-building" transform="translate(20.000000, 18.000000)">
                    <g id="Group-13" transform="translate(-0.000031, 0.008809)">
                        <path d="M34.5680521,32.7113617 L1.64653127,32.7113617 C0.736947936,32.7113617 3.12693614e-05,33.443617 3.12693614e-05,34.3482128 C3.12693614e-05,35.2512766 0.736947936,35.9835319 1.64653127,35.9835319 L34.5672813,35.9835319 C35.4768646,35.9835319 36.2137813,35.2512766 36.2137813,34.3482128 C36.2130104,33.443617 35.4760938,32.7113617 34.5680521,32.7113617 Z" id="Path"></path>
                        <path d="M3.70388544,28.458 C2.7943021,28.458 2.05738544,29.1902553 2.05738544,30.0940851 C2.05738544,30.9979149 2.7943021,31.7309362 3.70388544,31.7309362 L32.5099271,31.7309362 C33.4195104,31.7309362 34.1564271,30.9979149 34.1564271,30.0940851 C34.1564271,29.1902553 33.4195104,28.458 32.5099271,28.458 L32.0990729,28.458 L32.0990729,13.7362979 L32.5099271,13.7362979 C32.9654896,13.7362979 33.3324063,13.3701702 33.3324063,12.9190213 C33.3324063,12.4678723 32.9639479,12.1017447 32.5099271,12.1017447 L3.70388544,12.1017447 C3.24909377,12.1017447 2.88140627,12.4678723 2.88140627,12.9190213 C2.88140627,13.3701702 3.2498646,13.7362979 3.70388544,13.7362979 L4.11551044,13.7362979 L4.11551044,28.457234 L3.70388544,28.457234 L3.70388544,28.458 Z M28.8060729,13.7362979 L28.8060729,28.457234 L23.8681146,28.457234 L23.8681146,13.7362979 L28.8060729,13.7362979 Z M20.5751146,13.7362979 L20.5751146,28.457234 L15.6371563,28.457234 L15.6371563,13.7362979 L20.5751146,13.7362979 Z M7.40696877,13.7362979 L12.3449271,13.7362979 L12.3449271,28.457234 L7.40696877,28.457234 L7.40696877,13.7362979 Z" id="Shape"></path>
                        <path d="M1.64653127,10.6311064 L34.5672813,10.6311064 C34.5726771,10.6311064 34.5788438,10.6311064 34.5834688,10.6311064 C35.4938229,10.6311064 36.2299688,9.89885106 36.2299688,8.99502128 C36.2299688,8.27655319 35.7643854,7.66761702 35.1176563,7.44702128 L18.7836979,0.143617021 C18.3543438,-0.0478723404 17.8633229,-0.0478723404 17.4331979,0.143617021 L0.971281269,7.50370213 C0.262885436,7.82080851 -0.126385397,8.58523404 0.0370312694,9.33893617 C0.199677103,10.0926383 0.870302103,10.6311064 1.64653127,10.6311064 Z" id="Path"></path>
                    </g>
                </g>
            </g>
        </g>
    </g>
</svg>