<?xml version="1.0" encoding="UTF-8"?>
<svg width="36px" height="34px" viewBox="0 0 36 34" version="1.1" xmlns="http://www.w3.org/2000/svg" xmlns:xlink="http://www.w3.org/1999/xlink">
    <!-- Generator: Sketch 53 (72520) - https://sketchapp.com -->
    <title>wallet-filled-money-tool</title>
    <desc>Created with Sketch.</desc>
    <g id="Design" stroke="none" stroke-width="1" fill="none" fill-rule="evenodd">
        <g id="Index-moonly" transform="translate(-1166.000000, -1694.000000)" fill="#FCFBFE" fill-rule="nonzero">
            <g id="Group-10" transform="translate(1145.000000, 1674.000000)">
                <g id="wallet-filled-money-tool" transform="translate(21.000000, 20.000000)">
                    <g id="Group-16" transform="translate(0.000000, 0.033381)">
                        <path d="M8.40808081,6.46316102 L22.7515152,2.61432925 L21.9919192,1.10498345 C21.4949495,0.123908688 20.2828283,-0.281231499 19.2848485,0.207319903 L6.44444444,6.46316102 L8.40808081,6.46316102 Z" id="Path"></path>
                        <path d="M27.2040404,2.7255442 C27.026303,2.7255442 26.8484848,2.74937598 26.6707071,2.79703953 L23.3010505,3.70264701 L13.010101,6.46316102 L24.6909091,6.46316102 L29.7818182,6.46316102 L29.1515152,4.19119841 C28.9090909,3.30545074 28.0929293,2.7255442 27.2040404,2.7255442 Z" id="Path"></path>
                        <path d="M31.8868687,7.85334794 L31.4262626,7.85334794 L30.8,7.85334794 L30.1737374,7.85334794 L25.3939394,7.85334794 L7.83030303,7.85334794 L5.52727273,7.85334794 L3.58787879,7.85334794 L3.22828283,7.85334794 L2.02424242,7.85334794 C1.38585859,7.85334794 0.816161616,8.14330121 0.444444444,8.60007691 C0.274747475,8.81059093 0.145454545,9.05288065 0.0727272727,9.31900215 C0.0282828283,9.48582458 -6.75015599e-14,9.66059093 -6.75015599e-14,9.83932925 L-6.75015599e-14,10.077647 L-6.75015599e-14,12.3416657 L-6.75015599e-14,31.967133 C-6.75015599e-14,33.0634344 0.905050505,33.9531143 2.02020202,33.9531143 L31.8828283,33.9531143 C32.9980202,33.9531143 33.9030303,33.0634344 33.9030303,31.967133 L33.9030303,26.4262451 L21.9151515,26.4262451 C20.020202,26.4262451 18.4808081,24.9129274 18.4808081,23.0500769 L18.4808081,21.230918 L18.4808081,20.6152638 L18.4808081,19.9996096 L18.4808081,18.6332545 C18.4808081,17.7197031 18.8524848,16.8896026 19.4545455,16.2818923 C19.9878788,15.7416657 20.7030303,15.3762451 21.5030303,15.28489 C21.6363636,15.2690419 21.7737374,15.2610582 21.9111111,15.2610582 L32.2222222,15.2610582 L32.8484848,15.2610582 L33.4747475,15.2610582 L33.9030303,15.2610582 L33.9030303,9.83932925 C33.9070707,8.74306757 33.0020202,7.85334794 31.8868687,7.85334794 Z" id="Path"></path>
                        <path d="M35.3212121,17.1596564 C35.1191919,16.9769461 34.8808081,16.8379274 34.6141414,16.7465722 C34.4080404,16.6790886 34.189899,16.639369 33.959596,16.639369 L33.9070707,16.639369 L33.8666667,16.639369 L33.240404,16.639369 L30.9818182,16.639369 L21.9151515,16.639369 C20.7999596,16.639369 19.8949495,17.5290489 19.8949495,18.6253503 L19.8949495,19.6143292 L19.8949495,20.2299835 L19.8949495,20.8456377 L19.8949495,23.0461049 C19.8949495,24.1423666 20.7999596,25.0320863 21.9151515,25.0320863 L33.9070707,25.0320863 L33.959596,25.0320863 C34.189899,25.0320863 34.4080808,24.9923666 34.6141414,24.9248433 C34.8808081,24.8374601 35.1191919,24.6944694 35.3212121,24.5117592 C35.7252525,24.1503106 35.979798,23.6260115 35.979798,23.0461447 L35.979798,18.6253503 C35.979798,18.045404 35.7252525,17.5210652 35.3212121,17.1596564 Z M26.1333333,21.230918 C26.1333333,21.7790489 25.6808081,22.2239087 25.1232323,22.2239087 L24.4525253,22.2239087 C23.8949495,22.2239087 23.4424242,21.7790489 23.4424242,21.230918 L23.4424242,20.5715722 C23.4424242,20.2538152 23.5919192,19.9717662 23.830303,19.7930278 C24.0040404,19.6619531 24.2182222,19.5785816 24.4525253,19.5785816 L24.6222222,19.5785816 L25.1232323,19.5785816 C25.6808081,19.5785816 26.1333333,20.0234017 26.1333333,20.5715722 L26.1333333,21.230918 L26.1333333,21.230918 Z" id="Shape"></path>
                    </g>
                </g>
            </g>
        </g>
    </g>
</svg>