<?xml version="1.0" encoding="UTF-8"?>
<svg width="22px" height="22px" viewBox="0 0 22 22" version="1.1" xmlns="http://www.w3.org/2000/svg" xmlns:xlink="http://www.w3.org/1999/xlink">
    <!-- Generator: sketchtool 53 (72520) - https://sketchapp.com -->
    <title>A59C73EC-4392-44B3-99ED-03DCAE66DD51</title>
    <desc>Created with sketchtool.</desc>
    <g id="Design" stroke="none" stroke-width="1" fill="none" fill-rule="evenodd">
        <g id="Index-moonly" transform="translate(-357.000000, -1309.000000)" fill="#FFFFFF" fill-rule="nonzero">
            <g id="Group-2" transform="translate(329.000000, 1290.000000)">
                <g id="Group-4">
                    <path d="M50,29.01 C48.79,25.82 45.6,24.17 42.08,24.83 C38.67,21.42 33.94,19.11 29.21,19 C28.88,19 28.66,19.22 28.66,19.55 C28.77,24.28 31.08,29.01 34.38,32.42 C33.83,35.83 35.37,39.13 38.56,40.34 C38.01,38.91 37.9,37.26 38.34,35.61 C38.89,35.94 39.44,36.27 39.99,36.49 C40.21,36.6 40.43,36.6 40.65,36.38 L46.15,30.88 C46.26,30.77 46.26,30.55 46.15,30.33 C45.93,29.78 45.6,29.23 45.27,28.79 C46.92,28.35 48.57,28.46 50,29.01 Z M37.9,28.24 C37.02,29.12 35.7,29.12 34.82,28.24 C33.94,27.36 33.94,26.04 34.82,25.16 C35.7,24.28 37.02,24.28 37.9,25.16 C38.78,26.04 38.78,27.36 37.9,28.24 Z" id="Shape" transform="translate(39.330000, 29.670000) scale(-1, 1) translate(-39.330000, -29.670000) "></path>
                </g>
            </g>
        </g>
    </g>
</svg>