<?xml version="1.0" encoding="UTF-8"?>
<svg width="44px" height="36px" viewBox="0 0 44 36" version="1.1" xmlns="http://www.w3.org/2000/svg" xmlns:xlink="http://www.w3.org/1999/xlink">
    <!-- Generator: Sketch 53 (72520) - https://sketchapp.com -->
    <title>support</title>
    <desc>Created with Sketch.</desc>
    <g id="Design" stroke="none" stroke-width="1" fill="none" fill-rule="evenodd">
        <g id="Index-moonly" transform="translate(-1034.000000, -2419.000000)" fill="#3A386B" fill-rule="nonzero">
            <g id="support" transform="translate(1034.000000, 2419.000000)">
                <path d="M40.6660457,0.0208314607 L10.5290594,0.0208314607 C8.72084018,0.0208314607 7.27426484,1.51746067 7.27426484,3.29723596 L7.27426484,22.1466742 C7.27426484,23.9668989 8.76102283,25.4230787 10.5290594,25.4230787 L31.3034886,25.4230787 L36.0048584,30.1961124 C36.2057717,30.3983596 36.4468676,30.5197079 36.7281461,30.5197079 C37.2907032,30.5197079 37.772895,30.074764 37.772895,29.4680225 L37.772895,25.4230787 L40.6660457,25.4230787 C42.4742648,25.4230787 43.9208402,23.9264494 43.9208402,22.1466742 L43.9208402,3.29723596 C43.9208402,1.47701124 42.4340822,0.0208314607 40.6660457,0.0208314607 Z M15.1500639,16.2410562 C13.5025753,16.2410562 12.1363653,14.8657753 12.1363653,13.2073483 C12.1363653,11.5489213 13.5025753,10.1736404 15.1500639,10.1736404 C16.7975525,10.1736404 18.1637626,11.5489213 18.1637626,13.2073483 C18.1637626,14.8657753 16.8377352,16.2410562 15.1500639,16.2410562 Z M25.7181005,16.2410562 C24.0706119,16.2410562 22.7044018,14.8657753 22.7044018,13.2073483 C22.7044018,11.5489213 24.0706119,10.1736404 25.7181005,10.1736404 C27.365589,10.1736404 28.7317991,11.5489213 28.7317991,13.2073483 C28.7317991,14.8657753 27.365589,16.2410562 25.7181005,16.2410562 Z M36.2459543,16.2410562 C34.5984658,16.2410562 33.2322557,14.8657753 33.2322557,13.2073483 C33.2322557,11.5489213 34.5984658,10.1736404 36.2459543,10.1736404 C37.8934429,10.1736404 39.259653,11.5489213 39.259653,13.2073483 C39.259653,14.8657753 37.8934429,16.2410562 36.2459543,16.2410562 Z" id="Shape"></path>
                <path d="M5.42586301,22.227573 L5.42586301,15.7961124 L2.13088584,15.7961124 C0.965589041,15.7961124 0.00120547945,16.7668989 0.00120547945,17.9399326 L0.00120547945,30.3174607 C-0.0389771689,31.5713933 0.925406393,32.5421798 2.13088584,32.5421798 L4.01947032,32.5421798 L4.01947032,35.2118427 C4.01947032,35.5758876 4.34093151,35.8994831 4.70257534,35.8994831 C4.90348858,35.8994831 5.06421918,35.8185843 5.18476712,35.697236 L8.27883105,32.5826292 L21.9409315,32.5826292 C23.1062283,32.5826292 24.0706119,31.6118427 24.0706119,30.438809 L24.0706119,27.3646517 L10.5290594,27.3646517 C7.71627397,27.3646517 5.42586301,25.0590337 5.42586301,22.227573 Z" id="Path"></path>
            </g>
        </g>
    </g>
</svg>